<?xml version="1.0" encoding="utf-8"?>
<!-- Generator: Adobe Illustrator 23.0.1, SVG Export Plug-In . SVG Version: 6.00 Build 0)  -->
<svg version="1.1" id="Layer_1" xmlns="http://www.w3.org/2000/svg" xmlns:xlink="http://www.w3.org/1999/xlink" x="0px" y="0px"
	 viewBox="0 0 3000 2000" style="enable-background:new 0 0 3000 2000;" xml:space="preserve">
<style type="text/css">
	.st0{fill:#EDDAD3;}
	.st1{fill:#E8734D;}
	.st2{fill:#C96443;}
	.st3{fill:#EEA886;}
	.st4{fill:#202338;}
	.st5{fill:#2F6B8C;}
	.st6{fill:#323657;}
	.st7{fill:#C2B2AB;}
	.st8{fill:#163342;}
	.st9{fill:#A77860;}
	.st10{fill:#4373CF;}
	.st11{fill:#213A70;}
	.st12{fill:#FFCA55;}
	.st13{fill:#E8E8E8;}
	.st14{fill:#3A3F47;}
	.st15{fill:#C9A043;}
	.st16{fill:#444C94;}
	.st17{fill:#303669;}
	.st18{fill:#518AFA;}
	.st19{fill:#484E7D;}
	.st20{fill:#5B639E;}
	.st21{fill:#292C47;}
	.st22{fill:#EB4747;}
	.st23{fill:#807066;}
	.st24{fill:#D88A51;}
	.st25{fill:#D13F3F;}
	.st26{fill:#FAB46C;}
	.st27{fill:#D6C5BF;}
	.st28{fill:#548AD1;}
	.st29{fill:#4977B5;}
	.st30{fill:#F08D29;}
	.st31{fill:#D47C24;}
	.st32{fill:#C27120;}
	.st33{fill:#446FA8;}
	.st34{fill:#272A45;}
	.st35{fill:#5E9BEB;}
	.st36{fill:#DA9B5E;}
	.st37{fill:#D3E1D5;}
	.st38{fill:#FFF8F1;}
	.st39{fill:#454442;}
	.st40{fill:#C48A6F;}
	.st41{fill:#C28852;}
	.st42{fill:#E8586E;}
	.st43{fill:#AD4253;}
	.st44{fill:#F55D74;}
	.st45{fill:#FF6179;}
	.st46{fill:#C24A5C;}
</style>
<g>
	<g>
		<g>
			<path class="st0" d="M1420.26,770.64c0,0,75.73,34.45,102.65,27.83c12.44-3.06,28.83-20.24,44.4-40.43
				c5.13-6.65,10.17-13.63,14.96-20.53c0.01-0.01,0.01-0.03,0.01-0.03c19.1-27.58,34.08-54.02,34.08-54.02s56.47-66.18,11.15-95.67
				c0,0-16.44-6.16-31.55,10.02c-15.11,16.18-32.84,50.05-36.81,58.68c-3.96,8.63-59.43,88.63-62.3,90.43
				c-2.88,1.8-27.11-4.57-46.55-6.19c-31.69-2.65-25.4-3.98-25.4-3.98L1420.26,770.64z"/>
		</g>
		
			<rect x="1420.26" y="668.14" transform="matrix(-1 -1.224647e-16 1.224647e-16 -1 3059.7129 1497.4789)" class="st1" width="219.18" height="161.21"/>
		
			<rect x="1420.26" y="668.14" transform="matrix(-1 -1.224647e-16 1.224647e-16 -1 3059.7129 1408.6655)" class="st2" width="219.18" height="72.39"/>
		<path class="st1" d="M1836.32,1134.61l17.77-3.1c26.88-4.69,44.86-30.28,40.17-57.16l-20.21-115.78
			c-4.69-26.88-30.28-44.86-57.16-40.17l-17.77,3.1c-26.88,4.69-44.86,30.28-40.17,57.16l20.21,115.78
			C1783.85,1121.31,1809.44,1139.29,1836.32,1134.61z"/>
		<g>
			<g>
				<path class="st3" d="M1414.43,702.42c0,0,27.15-6.11,34.48-0.43c7.34,5.68-2.35,8.42-2.35,8.42s9.53-2.87,12.51,4.34
					c2.98,7.21-8.52,9.83-8.52,9.83s7.78-0.27,7.99,7.88c0.21,8.15-9.79,8.19-9.79,8.19s11.07,5.62,3.13,12.28
					c-13.41,11.24-33.17,6.92-33.17,6.92s-4.64-1.49-4.29-9.36c0,0-11.69-2.89-6.58-15.57c0,0-9.17-10.12,0.51-16.4
					C1408.36,718.5,1399.26,707.15,1414.43,702.42z"/>
			</g>
		</g>
		<g>
			<path class="st4" d="M1555.24,1584.16c0,0-20.92,21.96-42.15,26.57c-21.23,4.6-36.09,10.47-36.25,23.07
				c-0.16,12.6,61.1,20.91,85.4,8.2c36.26-18.96,39.95-13.25,43.97-22.73c4.02-9.48-4.83-34.83-4.57-37.84
				C1601.98,1577.71,1555.24,1584.16,1555.24,1584.16z"/>
		</g>
		<g>
			<path class="st5" d="M1557.59,1573.66c0,0-2.76,10.29-2.35,10.51c0.41,0.22,47.85,5.53,46.41-2.72
				c-1.16-6.69-2.82-13.97-2.82-13.97L1557.59,1573.66z"/>
		</g>
		<g>
			<path class="st4" d="M1791.51,1589.89c0,0-15.38,21.39-35.97,26.33c-20.29,4.86-33.44,14.13-34.44,26.37
				c-0.99,12.25,47.84,28.29,82.15,6.77c22.55-14.14,30.96-13.33,35.5-22.31c4.54-8.98-2.38-34.16-1.92-37.08
				C1837.4,1586.37,1791.51,1589.89,1791.51,1589.89z"/>
		</g>
		<g>
			<path class="st5" d="M1792.14,1579.31c0,0-1.01,10.34-0.63,10.58c0.38,0.24,45.6,8.24,45.33,0.09
				c-0.21-6.47-2.87-14.53-2.87-14.53L1792.14,1579.31z"/>
		</g>
		<g>
			<path class="st6" d="M1605.44,955.73c0,0-21.97,159.57-30.94,213.52c-10.49,63.07-14.05,115.19-16.97,147.84
				c-3.68,41.06-1.64,251.19-4.21,263.2c-2.58,12.01,51.95,5.77,51.95,5.77s39.98-273.94,50.95-317.67
				c10.21-40.72,38.28-208.58,47.59-197.46c9.31,11.12,39.47,202.34,46.36,234.45c6.9,32.11,34.74,284.91,34.74,284.91
				s46.34,10.07,58.99,0c0,0-2.83-225.42-7.22-285.63c-1.68-22.95,14.51-274.69-24.29-376.21
				C1791.88,874.79,1605.44,955.73,1605.44,955.73z"/>
		</g>
		<path class="st0" d="M1669.9,573.02c0,0-58.13,12.02-65.03,18.13c-7.49,6.5-20.69,70.17-21.48,87.91
			c-0.79,17.73,7.01,91.82,14.5,119.41c7.49,27.59,5.78,171.58,2.43,194.24c0,0,113.84,23.61,228.92,8.64
			c0,0-17.13-125.87-12.53-163.67c5.9-48.43,20.1-160.01,20.1-160.01s-15.37-75.13-25.62-83.8c-10.25-8.67-81.48-22.78-81.48-22.78
			L1669.9,573.02z"/>
		<path class="st7" d="M1799.34,724.64c0,0,10.98,71.44,10.21,76.02C1808.78,805.25,1859.25,786.32,1799.34,724.64z"/>
		<path class="st3" d="M1693.93,393.27c0,0-69.93-25.87-65.55,67.05c4.37,92.93,20.76,102.37,66.76,89.39
			c46-12.98,49.85-71.63,55.84-99.84C1756.96,421.66,1716.79,397.33,1693.93,393.27z"/>
		<path class="st3" d="M1658.38,587.73c0,0,36.33,29.46,71.32-16.65c0,0-1.54-37.41,9.16-72.35c10.7-34.94-73.22,46.59-73.22,46.59
			c0.88,0.62,1.05,4.11,0.55,8.98c-0.43,4.13-1.33,9.24-2.69,14.44C1660.43,580.42,1661.15,578.35,1658.38,587.73z"/>
		<path class="st8" d="M1741.25,495.96c0,0,0.2-24.82-10.12-27.11c-10.32-2.28-15.64,12.06-15.64,12.06l-8.31-0.45
			c0,0,7.43-25.16-2.41-30.92c-9.84-5.77-68.71-0.7-76.1-9.17c-7.39-8.47,3.33-58.77,19.39-63.7c16.06-4.94,59.94-14.95,87.8,9.86
			c0,0,24.96,0.16,24.9,30.08C1760.72,436.38,1749.65,482.5,1741.25,495.96z"/>
		<path class="st9" d="M1663.5,568.74c54.2-9.11,62.3-39.93,62.42-40.42c-21.07,27.17-59.73,25.98-59.73,25.98
			C1665.77,558.43,1664.86,563.55,1663.5,568.74z"/>
		<path class="st3" d="M1719.45,458.31c3.09-8.19,20.53-7.15,18.75,5.83c-1.79,12.98-16.2,32.97-21.99,29.23
			C1710.41,489.62,1715.19,469.61,1719.45,458.31z"/>
		<path class="st3" d="M1748.56,575.06c0,0-32.78,66.27-81.04,60.9c-48.26-5.36-20.29-51.6-15.67-58.98
			C1651.85,576.98,1680.8,558.4,1748.56,575.06z"/>
		<path class="st7" d="M1809.55,800.67c0,0-55.68,59.17-73.93,73.58c0,0,66.73-88.67,71.82-98.2
			C1807.44,776.05,1824.82,778.27,1809.55,800.67z"/>
		<path class="st1" d="M1605.61,590.24c9.2-5.4,18.63-6.35,18.63-6.35c-0.24,0.7-25.49,76.58-9.61,167.2
			c20.96,119.62,101.56,220.37,233.08,291.36l-7.64,14.16c-75.88-40.95-135.35-91.22-176.78-149.39
			c-33.27-46.72-55.02-98.58-64.64-154.12C1582.28,658.53,1604.57,593.24,1605.61,590.24z"/>
		<g>
			<g>
				<g>
					<g>
						<g>
							<path class="st3" d="M1680.25,964.77c0,0,5.37-0.45,7.62-1.8c0,0,3.91-2.76,6.81-4.56c0.92-0.57,1.74-1.04,2.29-1.29
								c2.33-1.05,7.77-2.65,12.66-6.74c4.89-4.08,21.47-27.13,21.47-27.13l-9.92-12.5l-7.62-13.02c0,0-38.59,5.97-43.59,9.25
								c-0.49,0.33-0.96,0.66-1.37,1.01c-3.96,3.19-5.57,7.22-7.46,9.13c-0.69,0.71-7.08,8.18-6.57,11.07
								c0.7,4.02,2.81,6.52,5.37,7.64c0,0,1.71,7.81,5.93,11.14c0,0,1.34,7.25,7.78,9.91
								C1673.66,956.89,1675.84,964.1,1680.25,964.77z"/>
						</g>
					</g>
				</g>
			</g>
		</g>
		<path class="st0" d="M1779.18,592.25c-7.62,2.95-15.7,21.39-9.69,57.57c6.44,38.81,19.25,55.38,24.41,64.45
			c5.15,9.07,33.48,64.99,28.38,72.34c-5.09,7.36-53.18,54.8-55.96,58.66c-2.78,3.86-56.47,52.46-56.47,52.46l27.33,38.2
			c0,0,115.94-90.56,124.99-99.6c9.05-9.04,36.08-28.04,26.08-59.62c-10.16-32.1-28.43-107.25-31.67-113.13
			C1853.32,657.71,1829.58,572.74,1779.18,592.25z"/>
	</g>
	<g>
		<g>
			<path class="st10" d="M887.41,1004.77c-0.12,293.68-8.34,351.17-82.09,416.96c-28.88,25.77-81.99,79.3-235.24,105.95
				c-46.01,8-101.02,13.58-167.11,15.27c-26.97,0.69-51.71-0.29-74.35-2.76c-18.98-2.05-36.48-5.16-52.56-9.19
				c-168.43-42.2-181.01-186.51-107.34-307.91c19.51-32.15,41.8-61.7,65.18-89.25c36.08-42.55,74.76-80.35,109.78-115.64
				c32.28-32.51,61.47-62.89,82.69-92.88c8.95-12.64,16.48-25.2,22.23-37.83c1.37-2.99,2.74-5.95,4.12-8.88
				c4.54-9.55,9.2-18.72,13.91-27.49c8.85-16.49,17.85-31.55,26.54-45.03c6.93-10.77,13.66-20.53,19.91-29.18
				c21.52-29.73,37.49-46.42,37.49-46.42s2-0.94,5.68-2.47c1.96-0.82,4.41-1.8,7.28-2.9c1.16-0.44,2.38-0.91,3.67-1.38
				c1.28-0.47,2.63-0.96,4.04-1.46c1.29-0.45,2.64-0.92,4.03-1.4c1.63-0.56,3.33-1.12,5.1-1.7c1.04-0.34,2.09-0.68,3.18-1.02
				c0.64-0.2,1.28-0.4,1.94-0.61c0.24-0.07,0.49-0.15,0.74-0.23c21.86-6.7,51.86-13.69,84.5-14.85
				C767.51,699.03,887.52,746.76,887.41,1004.77z"/>
		</g>
		<g>
			<path class="st11" d="M512.54,1537.89c0,0,3.06,25.01,7.13,36.04c4.06,11.03,26.13,36.5,16.81,60.96
				c-10.11,26.53-54.22,0.96-72.22-7.14c-17.99-8.1-13.9-22.77-15.82-40.76c-1.92-17.99-10.7-18.47-7.46-31.12
				c3.24-12.65,22.92-36.86,22.92-36.86L512.54,1537.89z"/>
		</g>
		<g>
			<g>
				<path class="st3" d="M472.39,1505.92c0,0-11.3,15.81-10.98,16.24c0.31,0.43,48.38,29.7,51.72,20.2
					c2.66-7.54,3.77-18.47,3.77-18.47L472.39,1505.92z"/>
			</g>
		</g>
		<g>
			<path class="st11" d="M309.46,1555.57c0,0-14.67,12.85-27.83,32.6c-13.17,19.75-48.12,20.8-49.62,47.76
				c-1.5,26.96,47.52,27.79,73.26,19.02c25.74-8.78,29.63-35.11,45.19-41.7c15.56-6.58,23.64-11.91,22.45-24.77
				c-1.2-12.85-9.81-33.72-9.81-33.72s-9.67,3.09-15.36,3.71C342.05,1559.11,322.92,1559.33,309.46,1555.57z"/>
		</g>
		<g>
			<path class="st12" d="M485.87,825.09c0,0-9.86,58.66-17.81,97.4c0,0,0,0,0,0c-3.23,15.71-6.14,28.15-7.94,32.07
				c-2.27,4.93-20.79,24.81-43.45,48.14c-39.76,40.93-92.29,92.47-92.29,92.47l-20.54-38.98c0,0,46.66-54.7,78.29-91.2
				c14.64-16.89,26.06-29.88,28.15-31.75c6.61-5.92,14.29-64.21,25.08-112.24c10.79-48.03,32.41-74.57,32.41-74.57L485.87,825.09z"
				/>
		</g>
		<g>
			<path class="st3" d="M416.67,1002.7c-39.76,40.93-92.29,92.47-92.29,92.47l-20.54-38.98c0,0,46.66-54.7,78.29-91.2
				C391.83,969.75,409.63,981.09,416.67,1002.7z"/>
		</g>
		<g>
			<path class="st3" d="M311.76,1537.61l-2.3,17.96c0,0,25.52,9.02,53.64-0.8l0.57-15.97L311.76,1537.61z"/>
		</g>
		<g>
			<path class="st12" d="M674.03,1087.25c1.47,5.22-270.3,0-270.3,0s75.18-54.72,80.05-69.34c4.87-14.62-19.14-102.33-22.28-130.87
				c-2.5-22.83-8.78-125.01,6.27-140.61c15.73-16.31,72.39-33.41,72.39-33.41l82.6,3.07c0,0,13.63,2.85,23.38,7.38
				c9.74,4.53,65.47,24.37,74.52,52.22c9.05,27.84-55.61,117.37-55.61,117.37s-0.13,4.02-0.32,10.62c0,0,0,0,0,0
				c-0.25,8.79-0.62,22.15-0.96,36.65c-0.43,18.77-0.81,39.44-0.81,54.54C662.97,1030.34,672.57,1082.02,674.03,1087.25z"/>
		</g>
		<g>
			<path class="st13" d="M674.03,1087.25c0,0,36.97,54.29,37.49,91.36c0.52,37.06-65.6,161.21-75.6,178.97
				c-30.08,53.39-112.58,168.55-112.58,168.55s-14.22-0.36-58.6-17.59c0,0,54.88-152.12,61.84-167.92
				c29.5-66.98,45.97-114.49,36.05-125.97c-9.92-11.48-36.96-23-44.79-29.79c-7.83-6.79-144.25,25.78-158.54,29.49
				c-37.01,9.6-20.14,74-11.96,102.88c13.7,48.3,25.67,222.75,25.67,222.75s-26.36,11.23-70.52,1.74c0,0-86.71-314.98-89.5-346.31
				c-2.78-31.33-4.15-82.97,209.54-122.23L674.03,1087.25z"/>
		</g>
		<g>
			<path class="st3" d="M562.83,533.55c0,0-71.7-16.18-55.33,74.06c16.38,90.24,33.62,97.33,76.88,78.66
				c43.26-18.67,39.39-76.49,41.56-104.84C628.13,553.08,585.7,534.53,562.83,533.55z"/>
		</g>
		<g>
			<path class="st3" d="M543.85,736.18c0,0,31.76,33.67,81.95,3.07c0,0-11.23-72.96-5.32-108.5c5.91-35.54-65.48,55.06-65.48,55.06
				c0.94,0.49,1.56,3.88,1.7,8.71c0.12,4.09-0.1,9.21-0.75,14.46C554.48,720.8,550.81,733.27,543.85,736.18z"/>
		</g>
		<g>
			<path class="st14" d="M622.46,627.73c0,0-1.85-28.43-12.24-29.32c-10.39-0.89-11.98,10.56-11.98,10.56l-10.49,1.98
				c0,0,3.32-24.92-7.05-29.27c-10.37-4.35-67.18,13.72-75.51,6.4c-8.32-7.31-4.41-57.86,10.65-64.78
				c15.05-6.92,56.63-22.42,87.09-1.8c0,0,23.74-2.71,27.26,16.45C633.71,557.12,628.91,613.48,622.46,627.73z"/>
		</g>
		<g>
			<path class="st9" d="M555.96,708.98c51.78-15.96,55.68-47.14,55.73-47.63c-17.05,29.3-54.98,33.17-54.98,33.17
				C556.83,698.61,556.61,703.73,555.96,708.98z"/>
		</g>
		<g>
			<path class="st3" d="M646.99,723.85c0,0-37.92,75.48-99.17,70.61c-61.26-4.87-10.44-80.74-7.65-81.44
				C543.22,712.24,602.99,697.35,646.99,723.85z"/>
		</g>
		<g>
			<path class="st12" d="M372.64,1083.42c0,0,187.69,23.14,301.39,3.82l-217.27-27.15C456.76,1060.1,455.48,1065.64,372.64,1083.42z
				"/>
		</g>
		<g>
			<path class="st3" d="M513.02,1051.55l-13.98,7.08c0,0,3.19,22.21,10.84,28.94l15.69-4
				C525.57,1083.57,522.3,1059.21,513.02,1051.55z"/>
		</g>
		<g>
			<path class="st12" d="M730.2,1006.07c-2.79,3.24-39.7,18.08-81.38,34.13l0,0c-56.95,21.94-121.18,42.69-121.18,42.69
				l-14.62-31.34c0,0,67.27-36.55,112.72-62.19c21.47-12.11,38.07-21.78,40.42-24.02c7.31-6.96,9.2-18.12,3.83-37.59
				c-5.37-19.47-17.75-108.94-19.14-119.38c-1.39-10.44,3.48-38.28,29.58-39.68c26.1-1.39,39.39,5.98,39.39,5.98
				s6.55,2.73,11.43,66.07C736.12,904.1,736.81,998.42,730.2,1006.07z"/>
		</g>
		<g>
			<path class="st15" d="M664.74,903.66C664.74,903.66,664.74,903.66,664.74,903.66c-0.25,8.79-0.62,22.16-0.96,36.65
				c-25.48-62.45-10.76-112.28-10.51-113.12C650.52,844.13,664.54,902.83,664.74,903.66z"/>
		</g>
		<g>
			<path class="st15" d="M468.05,922.49C468.05,922.49,468.05,922.49,468.05,922.49c-3.23,15.72-6.14,28.15-7.94,32.07
				c-8.7-42.11-0.87-96.03-0.87-96.03C460.43,884.29,468.05,922.49,468.05,922.49z"/>
		</g>
		<g>
			<path class="st3" d="M648.82,1040.21L648.82,1040.21c-56.95,21.94-123.25,43.36-123.25,43.36l-12.55-32.02
				c0,0,67.27-36.55,112.72-62.19C625.74,989.37,642.27,997.42,648.82,1040.21z"/>
		</g>
		<g>
			<polygon class="st16" points="508.97,1085.43 242.2,1081.5 376.89,1149.89 			"/>
		</g>
		<g>
			<polygon class="st17" points="376.89,1149.89 508.97,1098.73 508.97,1085.43 366.45,1136.84 			"/>
		</g>
		<g>
			<g>
				<path class="st3" d="M502.06,1059.12c0,0-16.66-2.59-28.18-5.27c-8.91-2.07-31.07,0.78-36.72,6.5
					c-5.64,5.72-23.6,45.58-26.99,48.01c-3.4,2.43,1.74,8.06,7.7,5.24c0,0,5.47,17.44,18.98,10.91
					c13.51-6.53,22.68-20.78,29.76-23.29c7.08-2.51,48.28-15.18,48.28-15.18S512.67,1054.88,502.06,1059.12z"/>
			</g>
		</g>
		<g>
			<g>
				<path class="st3" d="M441.22,1057.73c0,0-10.7,5.17-13.5,7.48c-2.79,2.31-14.12,10.78-16.86,12.78
					c-2.74,1.99,4.14,7.67,24.39-1.1C455.5,1068.12,441.22,1057.73,441.22,1057.73z"/>
			</g>
		</g>
		<g>
			<polygon class="st17" points="376.89,1149.89 297.54,933.24 41.74,937.42 117.36,1137.07 			"/>
		</g>
		<g>
			<path class="st18" d="M215.69,1029.08c7.81,15.61,5.45,32.6-5.27,37.96c-10.71,5.36-25.73-2.95-33.53-18.55
				c-7.81-15.6-5.45-32.6,5.27-37.96C192.87,1005.17,207.89,1013.48,215.69,1029.08z"/>
		</g>
		<g>
			<path class="st3" d="M598.46,596.93c0.94-7.96,16.68-10.88,17.95,1.06c1.27,11.94-7.15,32.88-13.12,30.82
				C597.31,626.75,597.16,607.9,598.46,596.93z"/>
		</g>
		<g>
			<ellipse class="st12" cx="607.17" cy="609.46" rx="20.54" ry="29.31"/>
		</g>
		<g>
			<g>
				<path class="st12" d="M614.78,591.58l-9.13-1.47c0.07-0.45,7.03-45.33-10.24-65.05c-5.52-6.3-17.07-14.09-26.63-13.84
					l10.53-0.03c12.31-0.32,19.02,3.72,23.07,7.79C623.92,540.64,615.1,589.56,614.78,591.58z"/>
			</g>
		</g>
		<g>
			<path class="st12" d="M561.48,670.75l-1.83-3.68c34.75-17.21,45.44-52.15,45.55-52.5l3.94,1.17
				C608.69,617.24,597.81,652.75,561.48,670.75z"/>
		</g>
		<g>
			<path class="st12" d="M567.41,668.91c0,3.78-3.07,6.85-6.85,6.85c-3.78,0-6.85-3.07-6.85-6.85c0-3.78,3.07-6.85,6.85-6.85
				C564.35,662.06,567.41,665.13,567.41,668.91z"/>
		</g>
	</g>
	<g>
		<g>
			<g>
				<path class="st19" d="M856.13,1577.03c0,0-30.43,13.73-44.02,18.5c-13.59,4.77-63.37-0.59-68.9,3.68
					c-5.53,4.27-5.76,20.42,2.25,23.24c8,2.83,67.47,17.5,88.19,15.4c20.73-2.09,57.22,11.9,65.93,10.08
					c8.71-1.81,9.47-50.72,7.63-61.99C905.36,1574.67,856.13,1577.03,856.13,1577.03z"/>
			</g>
		</g>
		<g>
			<g>
				<path class="st3" d="M863.13,1557.43l-7,19.6c0,0,36.68,13.07,51.07,8.92l4.81-19.98L863.13,1557.43z"/>
			</g>
		</g>
		<g>
			<g>
				<path class="st20" d="M938.16,1594.46c0,0-28.7,17.5-41.67,23.96c-12.97,6.46-62.99,7.46-68.01,12.41
					c-5.02,4.94-3.47,21.01,4.79,22.8c8.26,1.79,68.92,8.8,89.28,4.09c20.36-4.71,58.13,4.54,66.58,1.64
					c8.45-2.91,3.8-51.56,0.73-62.52C986.78,1585.87,938.16,1594.46,938.16,1594.46z"/>
			</g>
		</g>
		<g>
			<g>
				<path class="st3" d="M942.45,1574.09l-4.29,20.37c0,0,37.87,8.32,51.69,2.37l2.57-20.45L942.45,1574.09z"/>
			</g>
		</g>
		<path class="st21" d="M1230.13,1207.39c0,0-130.87,1.15-146.92,3.42c-17.39,2.46-85.49,4.66-93.7,17.13
			c-83,125.96-137.17,332.19-137.17,332.19l65.59,12.91c0,0,63.43-122.93,90-186.79c23.85-57.33,44.27-72.07,94.36-70.81
			c50.09,1.26,210.31-9.78,302.68-21.22L1230.13,1207.39z"/>
		<path class="st22" d="M1243.97,904.01c0,0-38.83,83.58-35.69,114.62c3.14,31.04,36.55,117.09,38.9,134.38
			c2.36,17.29-14.54,51.47-14.54,51.47l174.86,80.94c0,0,7.04-51.17,0-110.11c-7.04-58.94-12.24-122.29-20.01-155.59
			c-26.52-113.66-96.69-160.76-96.69-160.76L1243.97,904.01z"/>
		<path class="st6" d="M1232.65,1204.49c0,0-130.87,1.15-146.92,3.42c-17.39,2.46-87.02,3.64-93.7,17.13
			c-47.56,96.03-58.23,352.37-58.23,352.37l61.18,7.4c0,0,30.06-130.1,39.48-192.06c9.43-61.96,21.22-70.97,71.32-69.7
			c50.09,1.26,246.3,51.42,301.73-37.62L1232.65,1204.49z"/>
		<path class="st3" d="M1345.66,982.95c-0.38-16.18-9.78-86.03-49.18-81.25c-39.4,4.78-34.84,52.04-31.19,87.69
			c3.82,37.3,23.17,128.76,17.01,133.46c-6.16,4.7-52.9,18.75-62.95,20.75c-10.04,2.01-70.64,16.88-75.62,18.26
			c-4.86,1.36,4.89,24.92,4.89,24.92s167.81-4.92,195.88-18.22C1372.58,1155.28,1345.66,982.95,1345.66,982.95z"/>
		<path class="st3" d="M1143.74,1161.88c0,0-12.46,3.14-18.48,3.62c-6.01,0.48-34.46-10.81-43.32-9.18
			c-8.85,1.63-65.79,29.11-68.34,31.04c-2.55,1.93,1.51,5.71,1.51,5.71l133.52-4.83L1143.74,1161.88z"/>
		
			<rect x="976.88" y="1189.26" transform="matrix(-0.9992 0.0404 -0.0404 -0.9992 2223.5217 2353.9539)" class="st23" width="222.2" height="20.35"/>
		
			<rect x="838.24" y="1095.91" transform="matrix(-0.338 -0.9412 0.9412 -0.338 229.2068 2373.4055)" class="st23" width="222.2" height="20.35"/>
		<path class="st3" d="M1142.15,772.39c0,0-4.19,34.32,5.1,35.76c7.69,1.19,4.98,34.32,4.98,39.56c0,5.24,14.41,3.4,18.34,5.24
			c3.93,1.83,26.27,34.58,37.5,31.43c11.22-3.14,53.27-39.12,61.13-58.09c7.85-18.97-5.63-85.46-24.76-108.25
			C1225.31,695.25,1149.74,712.34,1142.15,772.39z"/>
		<path class="st3" d="M1229.7,860.08c0,0,1.13,3,2.8,7.67c1.23,3.44,2.75,7.77,4.33,12.49c4.27,12.77,8.95,28.27,9.3,35.84
			c0.66,14.14,44.67-57.11,44.67-57.11s-15.84-42.91-25.7-93.1C1255.24,715.68,1229.7,860.08,1229.7,860.08z"/>
		<path class="st24" d="M1141.5,779.73c0,0-27.58-24.5-8.13-58.29c19.45-33.79,87.3-14.41,93.78-15.19
			c6.48-0.79,40.33-11.53,46.89,53.7c6.56,65.23,2.43,55.44,2.43,55.44s-16.63-28-28.49-23.48c-11.87,4.52-32.62,6.68-32.62,6.68
			s-0.39-30.45-17.49-28.1C1180.78,772.85,1155.01,767.68,1141.5,779.73z"/>
		<path class="st25" d="M1348.66,985.99l-89.96,3.25c0,0-13.97-93.6,37.74-91.8C1348.14,899.25,1348.66,985.99,1348.66,985.99z"/>
		<path class="st3" d="M1226.05,776.88c-0.05-4.18-1.72-21.57,15.3-17.64c17.02,3.93,6.78,41.95,4.59,43.25
			C1243.75,803.78,1226.45,812.05,1226.05,776.88z"/>
		
			<rect x="1111.31" y="1319.58" transform="matrix(-1 -1.224647e-16 1.224647e-16 -1 2545.7478 2973.4932)" class="st26" width="323.14" height="334.33"/>
		<path class="st3" d="M1290.8,858.97c0,0-77.19,139.48-75.18,119.71c1.57-15.45,35-90.11,35-90.11L1290.8,858.97z"/>
		<path class="st9" d="M1232.5,867.75c1.23,3.44,2.75,7.77,4.33,12.49c15.56-19.36,26.35-41.27,29.55-48.09
			C1260.02,843.71,1232.5,867.75,1232.5,867.75z"/>
		<polygon class="st27" points="1232.65,1204.49 1404.58,1308.32 1407.5,1285.43 		"/>
	</g>
	<g>
		<path class="st3" d="M2265.12,972.31c0,0-3.04,13.76-8.37,27.8c-2.6,6.84-3.89,51.75-3.62,57.56c0.22,4.87,3.45,1.99,5.1-1.22
			c0.95-1.84,3.89-17.36,6.76-25.62c2.41-6.93,4.5-9.52,5.72-7.28c1.22,2.25,3.44,31.1,0.79,43.43c-2.64,12.33,0.11,40.74,6.6,36.63
			c6.49-4.11,21.68-55.49,20.4-74.84c-1.28-19.35-8.19-43.61-8.19-43.61L2265.12,972.31z"/>
		<g>
			<path class="st28" d="M2296.56,990.52l-40.61-3.55c0,0-4.85-46.31-10.05-90.79c-1.68-14.39-3.4-28.6-5-40.97
				c-0.02-0.17-0.05-0.34-0.07-0.51c-0.02-0.15-0.04-0.32-0.06-0.49c-2.01-15.47-3.83-27.97-5.14-34.24
				c-2.54-12.13-9.55-42.28-13.99-67.04c-1.46-8.15-2.69-16.56-3.73-24.79c-0.01-0.02,0-0.03,0-0.03
				c-4.16-32.85-5.23-62.8-5.23-62.8s-36.15-90.29,16.95-95.47c0,0,10.72,3.52,15.06,7.53c12.22,11.27,28.33,80.01,28.64,91.52
				c0.25,9.35,13.98,103.78,14.18,107.12c0.39,6.49,3.57,50.22,4.87,69.42C2295.41,890.25,2296.56,990.52,2296.56,990.52z"/>
		</g>
		<g>
			<path class="st4" d="M2284.53,1582.82c0,0,21.29,22.35,42.9,27.04c21.61,4.68,36.73,10.66,36.89,23.48
				c0.16,12.83-62.19,21.28-86.92,8.35c-36.91-19.3-40.66-13.48-44.75-23.13c-4.09-9.65,4.92-35.44,4.65-38.51
				C2236.97,1576.25,2284.53,1582.82,2284.53,1582.82z"/>
		</g>
		<g>
			<path class="st5" d="M2282.14,1572.13c0,0,2.81,10.47,2.39,10.69c-0.42,0.22-48.69,5.63-47.24-2.77
				c1.18-6.82,2.88-14.22,2.88-14.22L2282.14,1572.13z"/>
		</g>
		<g>
			<path class="st4" d="M2044.08,1588.65c0,0,15.66,21.77,36.6,26.79c20.65,4.95,34.04,14.38,35.05,26.84
				c1.01,12.47-48.69,28.79-83.61,6.89c-22.95-14.39-31.5-13.57-36.13-22.71c-4.62-9.14,2.42-34.76,1.96-37.73
				C1997.38,1585.07,2044.08,1588.65,2044.08,1588.65z"/>
		</g>
		<g>
			<path class="st5" d="M2043.44,1577.88c0,0,1.03,10.52,0.64,10.76c-0.39,0.24-46.41,8.38-46.13,0.09
				c0.22-6.59,2.92-14.78,2.92-14.78L2043.44,1577.88z"/>
		</g>
		<g>
			<path class="st6" d="M2233.44,943.24c0,0,22.36,162.4,31.49,217.3c10.68,64.19,14.3,117.23,17.27,150.46
				c3.74,41.79,1.67,255.64,4.29,267.86c2.62,12.22-52.87,5.87-52.87,5.87s-40.69-278.8-51.85-323.3
				c-10.39-41.44-38.95-212.28-48.43-200.96c-9.48,11.32-40.16,205.93-47.18,238.61c-7.02,32.68-35.36,289.96-35.36,289.96
				s-47.16,10.24-60.03,0c0,0,2.88-229.42,7.35-290.69c1.7-23.35-14.77-279.56,24.72-382.88
				C2043.71,860.87,2233.44,943.24,2233.44,943.24z"/>
		</g>
		<path class="st29" d="M2235.38,951l2.52,24.38c0,0-68.12,27.6-233.94,27.61v-27.9L2235.38,951z"/>
		<path class="st28" d="M2237.04,950.49c0,0-121.93,39.11-239.06,23.87c0,0,25.14-112.8,20.45-151.27
			c-1.97-16.22-4.87-39.42-7.86-63.23c-1.41-11.24-2.85-22.63-4.22-33.47c-4.53-35.98-8.37-66.14-8.37-66.14
			s20.48-79.69,30.91-88.51c10.43-8.83,78.08-19.96,78.08-19.96l60.87,1.97c0,0,59.16,12.24,66.18,18.45
			c7.62,6.62,19.69,71.53,21.86,89.47c3.24,26.81-7.14,93.45-14.76,121.52C2233.51,811.27,2251.18,930.79,2237.04,950.49z"/>
		<path class="st28" d="M2194.62,559.76c0,0,3.55-16.18-47.11-19.94c-50.66-3.75-84.93,7.64-85.89,22.17
			c-0.96,14.54,128.34,50.82,128.34,50.82L2194.62,559.76z"/>
		<path class="st3" d="M2179.57,568.73c0,0-17.06,7.52-72.59-16.95c0,0,1.57-38.07-9.33-73.63c-10.89-35.56,74.52,47.41,74.52,47.41
			c-0.81,0.57-1.03,3.56-0.69,7.83c0.04,0.43,0.08,0.87,0.12,1.31c0.44,4.2,1.36,9.41,2.74,14.69
			C2177.48,561.29,2176.75,559.18,2179.57,568.73z"/>
		<g>
			<g>
				<path class="st30" d="M2073.73,1031.46c-26.05,0-47.24-23.5-47.24-52.38c0-28.88,21.19-52.38,47.24-52.38
					c26.05,0,47.24,23.5,47.24,52.38C2120.97,1007.97,2099.78,1031.46,2073.73,1031.46z M2073.73,938.25
					c-20.01,0-36.3,18.32-36.3,40.83c0,22.51,16.28,40.83,36.3,40.83c20.02,0,36.3-18.32,36.3-40.83
					C2110.03,956.57,2093.75,938.25,2073.73,938.25z"/>
			</g>
			<rect x="1955.77" y="1141.18" class="st31" width="235.92" height="117.74"/>
			<path class="st30" d="M1966.64,1280.92c0,0-1-26.41,0-168.35C1967.68,965.13,2075,967.33,2075,967.33s107.32-2.2,108.36,145.24
				c1,141.94,0,168.35,0,168.35H1966.64z"/>
			<rect x="1991.12" y="1141.18" class="st31" width="167.75" height="117.74"/>
			<rect x="1991.12" y="1141.18" class="st32" width="167.75" height="32.73"/>
		</g>
		<path class="st33" d="M2055.48,662.39c-6.14,24.24-44.91,97.47-44.91,97.47c-1.41-11.24-2.85-22.63-4.22-33.47
			C2026.83,697.92,2055.48,662.39,2055.48,662.39z"/>
		<path class="st33" d="M2245.9,896.17c-1.68-14.39-3.4-28.6-5-40.97c-0.02-0.17-0.05-0.34-0.07-0.51
			c-0.02-0.15-0.04-0.32-0.06-0.49c-1.31-11.7-1.13-60.99,1.67-76.1c2.84-15.33,12.35-74.85,12.35-74.85
			C2257,765.8,2245.9,896.17,2245.9,896.17z"/>
		<g>
			<path class="st3" d="M2179.43,368.19c0,0,45.89,13.11,34.74,98.41c-12.3,94.09-79.49,68.94-96.52,51.51
				c-17.03-17.44-30.42-55.16-31.23-83.54C2085.61,406.17,2091.02,329.66,2179.43,368.19z"/>
		</g>
		<g>
			<path class="st22" d="M2217.24,429.9c0,0-1.58-31.43-40.51-24.94c-38.93,6.49-76.45,36.92-76.75,85.38
				c0,0-53.84-88.08-11.12-124.58C2131.57,329.25,2217.24,344.53,2217.24,429.9z"/>
		</g>
		<g>
			<path class="st34" d="M2166.8,407.14c0,0,41.89,40.2,53.66,41.21C2220.46,448.35,2226.91,390.07,2166.8,407.14z"/>
		</g>
		<path class="st3" d="M2111.21,448.35c-2.67-8.52-12.53-20-17.11-7.3c-4.58,12.71,8.06,41.67,13.43,37.61
			C2112.91,474.6,2116.12,464.03,2111.21,448.35z"/>
		<path class="st9" d="M2174.36,549.4c-45.88,2.47-62.2-37.79-62.2-37.79c25.49,30.09,58.67,21.96,59.34,21.79
			c0.04,0.43,0.08,0.87,0.12,1.31C2172.05,538.91,2172.98,544.12,2174.36,549.4z"/>
		<path class="st35" d="M2078,941.73c0,0,106.51-6.93,140.8-22.37c0,0,3.33-76.88,3.81-87.84l-21.95-28.1l-92.83,7.62l-34.1,31.44
			L2078,941.73z"/>
		<g>
			<g>
				<g>
					<g>
						<g>
							<path class="st3" d="M2051.16,960.43c0,0-3.06-4.55-3.43-7.19c0,0-0.3-4.86-0.72-8.3c-0.14-1.09-0.28-2.04-0.44-2.64
								c-0.66-2.52-2.85-7.85-2.72-14.34c0.12-6.48,7.85-34.33,7.85-34.33l16.23-0.1l15.19-2.26c0,0,19.85,34.42,20.44,40.48
								c0.05,0.59,0.09,1.18,0.07,1.73c0,5.18-2.18,9.03-2.49,11.74c-0.12,1-1.98,10.83-4.6,12.27c-3.63,2.01-6.96,1.93-9.48,0.61
								c0,0-7.28,3.62-12.62,2.4c0,0-6.61,3.56-12.82,0.14C2061.62,960.65,2054.51,963.5,2051.16,960.43z"/>
						</g>
					</g>
				</g>
			</g>
		</g>
		<path class="st28" d="M2070.86,574.05c7.02,4.47,11.42,24.48-1.78,59.38c-14.15,37.45-30.24,51.45-37.18,59.47
			c-6.94,8.03-46.34,58.2-42.72,66.56c3.62,8.35,42.18,65.28,44.19,69.69c2.01,4.41,52.27,62.63,52.27,62.63l-46.45,27.59
			c0,0-92.48-107.38-99.71-118.21c-7.23-10.82-30.43-35.16-14.17-64.7c16.53-30.02,49.71-101.39,54.12-106.61
			C1983.84,624.63,2021.17,542.42,2070.86,574.05z"/>
	</g>
	<g>
		<g>
			<path class="st36" d="M2516.91,550.3c0,0-18.67,92.51-8.16,184.58c10.51,92.07-10.17,238.44-10.17,238.44l103.8-151.28
				L2516.91,550.3z"/>
		</g>
		<g>
			<path class="st0" d="M2398.18,1609.43c0,0-29.38,39.27-25.34,45.49c4.03,6.23,34.92,7.12,53.72,0
				c18.8-7.11,19.25-53.14,27.76-72.91c3.56-8.28-4.06-32.71-14.77-34.49c-10.71-1.77-22.37,3.43-22.37,3.43
				S2428.29,1578.81,2398.18,1609.43z"/>
		</g>
		<g>
			<g>
				<path class="st3" d="M2416.98,1550.64c0,0-6.18,16.72-8.44,32.69c-1.87,13.25-20.93,41.36-20.03,44.92
					c0.9,3.56,25.07,6.78,34.92-2.39c9.85-9.17,16.18-35.83,18.36-51.78c2.02-14.86,4.57-22.2,4.57-22.2
					S2426.38,1540.86,2416.98,1550.64z"/>
			</g>
		</g>
		<g>
			<path class="st0" d="M2653.87,1610.08c0,0-28.32,38.62-24.29,44.84c4.03,6.23,34.92,7.12,53.72,0
				c18.81-7.11,19.25-53.14,27.76-72.91c3.56-8.28-4.06-32.71-14.78-34.49c-10.72-1.77-23.28,3.81-23.28,3.81
				S2683.97,1579.46,2653.87,1610.08z"/>
		</g>
		<g>
			<g>
				<path class="st3" d="M2673.01,1551.33c0,0-2.24,18.23-5.82,31.12c-3.58,12.89-22.83,42.24-21.94,45.79
					c0.9,3.56,25.07,6.78,34.92-2.39c9.85-9.17,17.46-35.71,18.35-51.78c0.89-16.07-2.24-26.55-2.24-26.55
					S2682.41,1541.55,2673.01,1551.33z"/>
			</g>
		</g>
		<g>
			<g>
				<path class="st37" d="M2531.51,911.98c0,0-25.21,116.45-30.99,145.77c-5.79,29.32-22,171.32-23.74,195.46
					c-1.74,24.15-26.3,115.12-25.14,123.75c1.16,8.62-39.9,179.55-39.9,179.55s50.76,3.91,62.36-0.71
					c7.93-3.16,49.93-158.24,49.93-201.35c0-59.6,34.97-137.41,40.04-150.98c49.9-133.53,59.06-165.22,66-173.26
					c0,0,1.05,10.89,3.42,28.99c2.73,20.81,14.64,169.42,19.85,188.97c5.21,19.54,1.16,85.66,4.06,119
					c2.9,33.34,8.27,185.44,8.27,185.44s39.92,1.1,51.43-5.43c3.86-2.19,3.4-163.46,3.98-203.12c0.58-39.67,1.2-94.37,2.32-111.53
					c10.72-164.38,37.09-187.86-4.43-304.2C2641.22,710.5,2531.51,911.98,2531.51,911.98z"/>
			</g>
		</g>
		<g>
			<polygon class="st0" points="2455.11,1578.55 2455.11,1619.67 2449.73,1619.67 2449.73,1587.89 			"/>
		</g>
		<g>
			<polygon class="st0" points="2711.85,1578.55 2711.85,1619.67 2706.48,1619.67 2706.48,1587.89 			"/>
		</g>
		<path class="st38" d="M2511.23,571.31c0,0-26.85,110.07-20.68,131.88c6.17,21.81,37.89,43.77,39.12,46.73
			c1.23,2.97,21.21,66.37,20.46,77.17c-0.76,10.8-18.62,84.89-18.62,84.89s83.22,38.24,185.23-51.87c0,0-23.71-72.18-24.4-82.81
			c-0.69-10.63-3.62-90.12-0.08-99.78c3.54-9.67,10.04-105.43,5.45-114.8c-4.59-9.37-56.13-35.33-95.34-43.28
			C2563.16,511.49,2511.23,571.31,2511.23,571.31z"/>
		<g>
			<path class="st39" d="M2468.2,357.36c0,0-41.73,26.6-34.31,64.13c11.48,58.02,54.28,74.83,57.83,112.04
				c3.55,37.21-12.98,50.54-12.98,50.54l64.62-57.19L2468.2,357.36z"/>
		</g>
		<g>
			<path class="st3" d="M2405.25,559.5c0,0,12.32-29.08,13.98-40.69c1.66-11.61,11.73-45.15,11.53-47.98
				c-0.2-2.83,35.22-53.53,34.91-59.58c-0.32-6.05,12.86-1.47,4.25,16.64s-20.49,48.88-15.35,54.74
				c5.14,5.87,21.22-10.86,27.55-8.73c6.32,2.13,5.55,1.45,4.72,4.72c-0.83,3.27-24.57,13.47-27.85,23.51
				c-3.28,10.03-15.85,19.52-18.46,27.14c-2.61,7.62-16.08,44.04-16.08,44.04L2405.25,559.5z"/>
		</g>
		<g>
			<path class="st12" d="M2534.52,534.18l-7.72,28.69l-22.35,83c0,0-7.44,6.11-17.95,14.6c-23.2,18.78-75.6,53.86-81.26,55.86
				c-7.33,2.6-44.59,3.63-47.03-21.76c-2.44-25.4,56.23-171.87,56.23-171.87c18.09-4.4,37,3.92,37,3.92l-29.83,117.43
				c0.43-0.28,21.11-13.61,38.32-38.68c8.93-13,28.44-31.49,45.26-46.36c11.39-10.07,21.55-18.48,26.37-22.42
				C2533.45,535.03,2534.52,534.18,2534.52,534.18z"/>
		</g>
		<g>
			<path class="st3" d="M2599.59,516.69c-5.52,59.36-37.48,102.51-49.9,109.09c-12.42,6.57-26.2-61.73-19.41-73.83
				c1.82-3.24,2.11-7.94,1.56-13.09c-1.03-9.76-5.08-21.13-7.46-27.18c-1.06-2.68-1.79-4.32-1.79-4.32s40.33-78.17,48.5-36.91
				C2579.26,511.71,2599.59,516.69,2599.59,516.69z"/>
		</g>
		<g>
			<path class="st40" d="M2560.57,495.38c-0.15,0.49-10.1,32-28.72,43.48c-1.03-9.76-5.08-21.13-7.46-27.18L2560.57,495.38z"/>
		</g>
		<g>
			<path class="st3" d="M2449.03,376.84c0,0,4.5,78.93,27.98,114.16c37.67,56.53,55.62,37.59,79.44,10.05
				c34.41-39.77-12.83-141.48-12.83-141.48L2449.03,376.84z"/>
		</g>
		<g>
			<path class="st39" d="M2447.45,440.46c0,0,25.02,5.98,60.93-15.74c35.65-21.56,50.08,61.08,58.65,63.3
				c8.56,2.21,13.42-90.03-5.94-111.58c-19.36-21.56-54.08-47.92-88.66-25.83C2434.56,374.79,2429.05,407.61,2447.45,440.46z"/>
		</g>
		<g>
			<path class="st12" d="M2761.62,1063.91c-0.96-18.91-20.1-63.71-44.46-116.4c-5.65-12.2-11.56-24.83-17.6-37.66
				c-4.5-9.55-9.08-19.23-13.64-28.91c-29.77-63.14-59.5-127.04-70.71-165.99c-25.18-87.57,0.52-194.15,0.52-194.15s0.01,0,0.03,0
				c29.5,5.01,69.51,21.9,79.42,34.9c0,0,0,0,0,0.02c0.42,0.53,0.79,1.23,1.13,2.05c3.44,6.31,12.6,33.55,22.83,53.68
				c0,0-13.75,10.15-23.4,32.72c-4.06,9.5-7.12,19.89-7.57,30.23c-0.22,4.62,0.1,9.23,1.07,13.77c0.32,1.47,0.7,2.92,1.16,4.37
				c12.55,39.43,26.24,82.75,26.24,82.75c0.16,3.8,0.71,7.86,1.61,12.12c0.02,0.06,0.02,0.09,0.02,0.09v0.01
				c1.83,8.71,5.04,18.33,9.09,28.52c0.48,1.2,0.97,2.42,1.47,3.64c0.02,0.03,0.02,0.04,0.02,0.04c6.99,17,16.09,35.54,24.94,54.26
				c14.41,30.54,28.08,61.6,30.67,87.5C2790.2,1018.82,2761.62,1063.91,2761.62,1063.91z"/>
		</g>
		<g>
			<path class="st39" d="M2457.16,364.01c0,0,13.02-21.95,52.01-23.89c29.67-1.47,76.14,28.85,81.3,89.81
				c6.6,78.07,42.94,92.5,59.41,100.17c16.46,7.68-56.14,2.73-78.03-31.22c-9.95-15.43-23.15-38.1-27.85-54.12
				c-4.69-16.03-39.97-77.15-65.71-65.72C2452.56,390.48,2457.16,364.01,2457.16,364.01z"/>
		</g>
		<g>
			<path class="st3" d="M2536.84,446.9c-3.35-9.93,11.45-20.55,16.99-12.97c5.54,7.58,3.88,34.75-5.32,31.79
				C2539.3,462.76,2536.84,446.9,2536.84,446.9z"/>
		</g>
		<g>
			<polygon class="st41" points="2421.61,644.04 2409.32,683.08 2436.12,632.52 			"/>
		</g>
		<g>
			<path class="st12" d="M2531.56,536.58c0,0,2.12,9.33-0.56,25c-4.27,25.01-14.25,64.19-15.47,92.39
				c-1.97,45.87,25.28,127.03-6.36,303.9c-5.24,8.63-10.9,15.9-16.73,25.79c0.17-1.44,23.17-208.2,4.27-258.66
				c-10.56-28.19-11.65-26.78-10.21-64.53c1.11-29.13,1.64-56.08,13.52-95.22C2511.41,555.18,2526.74,540.52,2531.56,536.58z"/>
		</g>
		<path class="st41" d="M2728.88,819.71c-25.5-27.13-59.54-156.92-59.54-156.92c7.17-0.73,13.43,3.83,18.86,11.59
			c21.3,30.39,29.77,109.96,30.09,113.01c0.02,0.06,0.02,0.09,0.02,0.09v0.01c1.83,8.71,5.04,18.33,9.09,28.52
			c0.48,1.2,0.97,2.42,1.47,3.64C2728.88,819.7,2728.88,819.71,2728.88,819.71z"/>
		<g>
			<path class="st3" d="M2857.8,846.31c0,0,14.24,5.51,21.02-1.68c5.17-5.48,14.19-15.57,15.61-18.51
				c1.31-2.71,9.05-13.43,10.54-7.86c1.49,5.56-7.29,30.3-11.23,33.31c-3.94,3.01,17.13,7.98,20.21,12.01
				c3.08,4.03-7.78,39.51-21.82,34.38c-14.03-5.13-24.29-19.64-26.7-20.83c-4.05-2-19.85-8.6-19.85-8.6L2857.8,846.31z"/>
		</g>
		<g>
			<path class="st3" d="M2910.97,861.58c0,0,41.88,18.66,43.59,22.32c1.72,3.66,0.54,5.95-3.45,4.37c-3.99-1.57-41-16.81-41-16.81
				s45.74,30.7,47.79,33.37c1.2,1.56-0.82,6.13-3.04,5.49c-2.21-0.64-49.31-28.38-49.31-28.38s42.65,28.75,43.71,31.52
				c0.92,2.43-1.95,6.16-5.26,4.26c-3.31-1.9-44.42-26.26-44.42-26.26s29.15,22.87,29.24,25.87c0.08,2.62-1.86,5.81-9.34-0.36
				c-7.48-6.17-26.67-18.81-26.67-18.81L2910.97,861.58z"/>
		</g>
		<g>
			<path class="st12" d="M2732.85,658.76c8.36,40.13,24.13,97.82,28.23,104.92c1.83,3.17,8.78,8.7,18.3,16.66
				c13.81,11.56,90.75,66.45,90.75,66.45c0.34,13.79-18.44,32.93-18.44,32.93c-12.55-7.72-38.57-23.04-66.44-38.08
				c-32.11-17.33-55.31-34.55-61.34-43.66c-11.25-17.01-50.37-120.51-58.29-146.56c-3.05-10.03-6.51-26.81-9.61-43.64
				c-4.08-22.19-7.54-44.48-8.63-51.58c-0.21-1.39-0.33-2.2-0.35-2.31c0-0.01,0-0.01,0-0.01s16.64-21.78,47.09,0.53
				C2694.11,554.39,2715.67,576.34,2732.85,658.76z"/>
		</g>
		<g>
			<path class="st42" d="M2793.76,1423.15c-23.99,0-43.5-17.95-43.5-40c0-22.06,19.52-40,43.5-40c23.99,0,43.51,17.95,43.51,40
				C2837.27,1405.2,2817.75,1423.15,2793.76,1423.15z M2793.76,1351.97c-18.43,0-33.43,13.99-33.43,31.18
				c0,17.19,15,31.18,33.43,31.18c18.44,0,33.43-13.99,33.43-31.18C2827.2,1365.95,2812.2,1351.97,2793.76,1351.97z"/>
		</g>
		<rect x="2685.13" y="1524.19" class="st43" width="217.28" height="108.43"/>
		<path class="st44" d="M2695.13,1652.88c0,0-0.92-24.33,0-155.04c0.96-135.79,99.79-133.76,99.79-133.76s98.84-2.03,99.8,133.76
			c0.92,130.72,0,155.04,0,155.04H2695.13z"/>
		<rect x="2717.68" y="1524.19" class="st45" width="154.49" height="108.43"/>
		<rect x="2717.68" y="1524.19" class="st46" width="154.49" height="30.15"/>
	</g>
</g>
</svg>
