<?xml version="1.0" encoding="utf-8"?>
<!-- Generator: Adobe Illustrator 23.0.1, SVG Export Plug-In . SVG Version: 6.00 Build 0)  -->
<svg version="1.1" xmlns="http://www.w3.org/2000/svg" xmlns:xlink="http://www.w3.org/1999/xlink" x="0px" y="0px"
	 viewBox="0 0 750 500" style="enable-background:new 0 0 750 500;" xml:space="preserve">
<style type="text/css">
	.st0{fill:#EF6E4B;}
	.st1{fill:#7F9093;}
	.st2{fill:#A1B3B7;}
	.st3{fill:#B5C4C9;}
	.st4{fill:#FF8B66;}
	.st5{fill:#0E3944;}
	.st6{fill:#072228;}
	.st7{fill:#105E99;}
	.st8{fill:#0A2D35;}
	.st9{fill:#DB614D;}
	.st10{fill:#FFB878;}
	.st11{fill:#1A4850;}
	.st12{fill:#8BBDDB;}
	.st13{fill:#7AB0C1;}
	.st14{fill:#0A4563;}
	.st15{fill:#094563;}
	.st16{fill:#CFD8DC;}
	.st17{fill:#8B383E;}
	.st18{fill:#5A919E;}
	.st19{fill:#0D527C;}
	.st20{fill:#FFC3BA;}
	.st21{fill:#F2ADA2;}
	.st22{fill:#ED93A4;}
	.st23{fill:none;stroke:#0E3944;stroke-width:0.5;stroke-miterlimit:10;}
	.st24{fill:none;stroke:#0E3944;stroke-width:0.5;stroke-linecap:round;stroke-linejoin:round;stroke-miterlimit:10;}
	.st25{fill:#83989E;}
	.st26{fill:none;stroke:#F2A668;stroke-miterlimit:10;}
	.st27{fill:#F2A668;}
	.st28{fill:#8EA9AF;}
	.st29{fill:#CE364C;}
	.st30{fill:#A01F38;}
	.st31{fill:#4F1812;}
	.st32{fill:#994239;}
	.st33{fill:#B0574D;}
	.st34{fill:#73231A;}
</style>
<g id="BACKGROUND">
</g>
<g id="OBJECTS">
	<g>
		<g>
			<path class="st0" d="M419.57,308.46c0,0-1.75,3.46-2,5.58s3.13,9.38,3.13,9.38s3.13-1.5,3.13-1.88s1.75-6.5,1.75-6.5l-1.38-6.58
				H419.57z"/>
			<g>
				<polygon class="st1" points="434.18,342.45 413.24,337.21 413.24,311.96 430.07,314.22 434.18,315.04 				"/>
				<polygon class="st2" points="434.18,315.56 411.32,313.56 412.32,338.56 434.18,342.45 				"/>
				<path class="st3" d="M413.29,319.02c-0.21-0.54,0.1-1.23,0.64-1.43c0.54-0.2,1.22,0.12,1.42,0.67c1.74,0.55,3.55-0.45,5.18-1.28
					c1.63-0.83,3.71-1.48,5.17-0.38c0.81,0.61,1.2,1.61,1.82,2.42c0.59,0.78,1.39,1.37,2,2.13c0.61,0.76,1,1.82,0.61,2.71
					c-0.18,0.4-0.5,0.73-0.7,1.12c-0.61,1.2,0.02,2.61,0.43,3.89c0.41,1.28,0.39,3.03-0.84,3.56c-0.58,0.25-1.25,0.13-1.86,0.26
					c-1.75,0.38-2.41,2.51-3.77,3.67c-1.44,1.23-3.81,1.16-5.19-0.14c-0.37-0.35-0.66-0.76-1.06-1.08
					c-1.06-0.83-2.76-0.65-3.62,0.38c-1.24-2.6-1.16-5.78,0.2-8.31c-0.37-0.08-0.75-0.16-1.12-0.24c-0.64-0.83,0.36-1.91,0.67-2.92
					c0.29-0.94-0.07-1.94-0.28-2.91c-0.22-0.96-0.22-2.13,0.55-2.75"/>
				<g>
					<path class="st1" d="M421.55,327.66c0.22,0.17,0.48,0.36,0.82,0.52c0.17,0.08,0.37,0.15,0.59,0.18c0.11,0.02,0.22,0.02,0.37,0
						c0.07-0.01,0.21-0.04,0.3-0.08c0.4-0.21,0.49-0.5,0.62-0.71c0.13-0.23,0.26-0.47,0.39-0.71c0.12-0.24,0.24-0.48,0.36-0.72
						c0.12-0.24,0.2-0.47,0.34-0.61c0.13-0.14,0.31-0.23,0.52-0.25c0.21-0.02,0.41,0.04,0.66,0.14c0.47,0.2,0.84,0.44,1.09,0.63
						c0.24,0.19,0.37,0.32,0.37,0.32s-0.06-0.15-0.24-0.39c-0.18-0.24-0.51-0.58-1.01-0.89c-0.24-0.15-0.62-0.34-1.01-0.35
						c-0.39-0.02-0.77,0.1-1.02,0.32c-0.25,0.22-0.39,0.47-0.51,0.7c-0.13,0.23-0.26,0.47-0.39,0.71c-0.12,0.24-0.24,0.48-0.36,0.72
						c-0.13,0.24-0.2,0.48-0.32,0.53c-0.04,0.02-0.04,0.02-0.12,0.04c-0.01,0-0.06,0.01-0.1,0.01c-0.09,0-0.21-0.02-0.33-0.06
						c-0.24-0.08-0.5-0.21-0.72-0.34c-0.94-0.55-1.62-0.88-1.62-0.88S420.72,326.98,421.55,327.66z"/>
					<path class="st1" d="M415.46,327.52c0.36,0.33,0.86,0.81,1.48,1.36c0.32,0.28,0.64,0.58,1.03,0.9
						c0.38,0.31,0.86,0.67,1.48,0.87c0.61,0.2,1.25,0.25,1.81,0.18c0.57-0.07,1.09-0.21,1.57-0.41c0.94-0.42,1.65-1.08,2.12-1.75
						c0.49-0.67,0.82-1.35,1.12-1.91c0.07-0.13,0.15-0.26,0.21-0.38c0.02-0.07,0.12-0.08,0.29-0.05c0.31,0.04,0.6,0.14,0.82,0.25
						c0.44,0.21,0.64,0.42,0.64,0.42s-0.04-0.05-0.12-0.15c-0.09-0.09-0.22-0.24-0.44-0.38c-0.22-0.14-0.51-0.3-0.88-0.4
						c-0.15-0.05-0.48-0.12-0.67,0.06c-0.14,0.14-0.21,0.24-0.32,0.38c-0.82,1.01-1.66,2.54-3.33,3.26c-0.8,0.36-1.82,0.54-2.68,0.3
						c-0.43-0.13-0.84-0.37-1.22-0.64c-0.39-0.29-0.76-0.55-1.11-0.8c-0.69-0.5-1.29-0.9-1.7-1.19c-0.41-0.28-0.66-0.44-0.66-0.44
						S415.11,327.19,415.46,327.52z"/>
					<path class="st1" d="M425,330.51c0.6-0.59,1.04-1.22,1.38-1.77c0.17-0.27,0.33-0.48,0.55-0.6c0.22-0.12,0.5-0.13,0.73-0.09
						c0.23,0.04,0.41,0.11,0.51,0.19c0.1,0.07,0.15,0.13,0.15,0.13s-0.02-0.06-0.12-0.15c-0.09-0.09-0.27-0.22-0.53-0.3
						c-0.25-0.08-0.6-0.13-0.93-0.02c-0.34,0.1-0.6,0.33-0.82,0.58c-0.85,0.97-2.08,2.2-3.73,2.99c-0.81,0.41-1.72,0.7-2.63,0.87
						c-0.91,0.15-1.84,0.25-2.58,0.13c-0.75-0.13-1.34-0.57-1.7-0.87c-0.37-0.31-0.58-0.5-0.58-0.5s0.14,0.22,0.45,0.58
						c0.16,0.18,0.36,0.39,0.65,0.62c0.29,0.23,0.66,0.45,1.14,0.58c0.46,0.13,0.95,0.18,1.43,0.18c0.49,0.01,0.99-0.01,1.5-0.08
						c1.02-0.12,2.02-0.43,2.91-0.85C423.66,331.67,424.41,331.11,425,330.51z"/>
					<path class="st1" d="M429.05,330.07c-0.24-0.12-0.63-0.26-1.09-0.27c-0.23-0.01-0.47,0.01-0.71,0.06
						c-0.23,0.05-0.51,0.15-0.69,0.27c-0.44,0.25-0.72,0.62-0.99,0.95c-0.13,0.18-0.24,0.32-0.39,0.48
						c-0.13,0.14-0.27,0.3-0.41,0.43c-0.29,0.27-0.59,0.5-0.85,0.7c-0.54,0.39-0.95,0.64-0.95,0.64s0.57-0.01,1.29-0.27
						c0.36-0.12,0.76-0.31,1.13-0.56c0.18-0.13,0.37-0.26,0.53-0.43c0.15-0.15,0.31-0.34,0.45-0.5c0.26-0.35,0.5-0.67,0.78-0.9
						c0.17-0.13,0.28-0.21,0.46-0.29c0.17-0.07,0.34-0.13,0.51-0.16c0.69-0.15,1.29,0.07,1.29,0.07S429.29,330.19,429.05,330.07z"/>
					<path class="st1" d="M420.48,320.82c0.24,0.03,0.45,0.09,0.7,0.15c0.48,0.14,0.98,0.33,1.44,0.59c0.94,0.49,1.7,1.23,2.18,1.83
						c0.12,0.15,0.22,0.3,0.35,0.45c0.13,0.14,0.3,0.25,0.43,0.3c0.29,0.1,0.42,0.03,0.42,0.04c0,0-0.16-0.01-0.34-0.15
						c-0.09-0.07-0.16-0.16-0.22-0.28c-0.05-0.12-0.1-0.28-0.18-0.46c-0.16-0.36-0.42-0.78-0.81-1.19c-0.19-0.2-0.41-0.41-0.65-0.6
						c-0.13-0.1-0.25-0.19-0.38-0.27c-0.14-0.09-0.27-0.17-0.42-0.25c-0.57-0.3-1.19-0.53-1.77-0.63c-0.58-0.11-1.12-0.09-1.54-0.01
						c-0.42,0.08-0.71,0.22-0.89,0.34c-0.18,0.12-0.25,0.2-0.25,0.2s0.52-0.15,1.31-0.12C420.04,320.76,420.26,320.79,420.48,320.82
						z"/>
					<path class="st1" d="M423.99,320.45c0.44,0.23,0.9,0.5,1.22,0.81c0.16,0.15,0.29,0.31,0.38,0.48c0.08,0.17,0.14,0.36,0.18,0.55
						c0.07,0.39,0.13,0.84,0.35,1.22c0.2,0.37,0.53,0.64,0.77,0.77c0.25,0.13,0.39,0.15,0.39,0.15s-0.13-0.08-0.29-0.25
						c-0.16-0.16-0.32-0.42-0.39-0.72c-0.08-0.31-0.03-0.64-0.05-1.08c-0.02-0.22-0.04-0.47-0.16-0.75
						c-0.12-0.27-0.32-0.53-0.55-0.76c-0.99-0.9-2.24-1.23-3.1-1.37c-0.88-0.14-1.42-0.06-1.42-0.06s0.57,0.17,1.37,0.46
						C423.08,320.05,423.54,320.23,423.99,320.45z"/>
					<path class="st1" d="M426.82,320.7c0.11,0.13,0.18,0.24,0.29,0.4c0.16,0.27,0.3,0.58,0.36,0.88c0.08,0.31,0.08,0.61,0.08,0.93
						c-0.01,0.32,0,0.66,0.12,0.96c0.11,0.3,0.3,0.54,0.46,0.67c0.16,0.14,0.27,0.19,0.27,0.19s-0.25-0.37-0.22-0.83
						c0.01-0.23,0.09-0.49,0.16-0.8c0.08-0.3,0.11-0.7,0.02-1.1c-0.1-0.4-0.29-0.81-0.6-1.16c-0.13-0.15-0.31-0.33-0.47-0.45
						c-0.16-0.13-0.34-0.24-0.5-0.33c-0.33-0.18-0.63-0.27-0.83-0.32c-0.2-0.04-0.32-0.05-0.32-0.05s0.42,0.25,0.86,0.66
						C426.61,320.47,426.72,320.58,426.82,320.7z"/>
					<path class="st1" d="M419.47,323.44l0.49,0.3c0.17,0.1,0.34,0.23,0.55,0.33c0.21,0.11,0.44,0.21,0.69,0.27
						c0.25,0.05,0.5,0.08,0.74,0.03c0.1-0.02,0.26-0.08,0.31-0.13c0.1-0.08,0.14-0.16,0.17-0.23c0.07-0.15,0.07-0.29,0.21-0.4
						c-0.21,0-0.38,0.13-0.5,0.21c-0.06,0.04-0.14,0.08-0.18,0.08c-0.09,0.03-0.12,0.01-0.2,0.01c-0.14-0.02-0.29-0.05-0.43-0.12
						c-0.14-0.06-0.28-0.14-0.42-0.24c-0.29-0.19-0.64-0.47-1.02-0.67c-0.38-0.22-0.78-0.39-1.18-0.54l-0.48-0.17l-0.01,0.33
						c-0.01,0.45-0.04,0.9-0.03,1.39c0.28-0.24,0.46-0.54,0.61-0.85C419.02,323.18,419.25,323.31,419.47,323.44z"/>
					<path class="st1" d="M421.46,326.69c0,0,0.21,0.01,0.39-0.1c0.19-0.11,0.33-0.35,0.3-0.63c-0.04-0.28-0.23-0.55-0.45-0.7
						c-0.22-0.16-0.42-0.19-0.42-0.19s-0.02,0.16-0.03,0.32c-0.01,0.16-0.01,0.33,0,0.49c0.02,0.16,0.07,0.33,0.11,0.5
						C421.4,326.52,421.46,326.69,421.46,326.69z"/>
					<path class="st1" d="M420.66,325.79c0.01,0.01-0.14-0.12-0.28-0.04c-0.14,0.07-0.12,0.26-0.02,0.36
						c0.11,0.1,0.31,0.13,0.41,0.06c0.05-0.03,0.1-0.09,0.07-0.13c-0.01-0.05-0.02-0.07-0.02-0.07s-0.02-0.03-0.04-0.07
						c0,0,0-0.01,0-0.01C420.71,325.85,420.66,325.79,420.66,325.79z"/>
					<path class="st1" d="M420.9,325.9c0.13-0.03,0.15-0.15,0.1-0.19c-0.05-0.05-0.17-0.04-0.21,0.05c-0.02,0.03-0.03,0.08,0,0.12
						C420.82,325.9,420.85,325.91,420.9,325.9z"/>
					<path class="st1" d="M421.42,322c0,0-0.05,0.09-0.13,0.22c-0.06,0.1-0.11,0.19-0.11,0.28c0,0.09,0.05,0.19,0.11,0.32
						c0.07,0.16,0.12,0.26,0.12,0.26s0.18,0.05,0.35-0.01c0.18-0.05,0.32-0.21,0.32-0.41c0-0.2-0.15-0.41-0.32-0.52
						C421.6,322.01,421.42,322,421.42,322z"/>
					<path class="st1" d="M420.25,322.31c0,0.05,0.09,0.1,0.2,0.09c0.04,0,0.08-0.01,0.12-0.02c-0.03-0.03-0.07-0.06-0.11-0.07
						C420.35,322.25,420.26,322.26,420.25,322.31z"/>
					<path class="st1" d="M420.68,322.34c0,0-0.05,0.02-0.11,0.04c0.05,0.04,0.1,0.09,0.1,0.08c0,0,0.11,0.11,0.24,0.13
						c0.12,0.04,0.24-0.01,0.24-0.09c0-0.08-0.1-0.17-0.23-0.19C420.81,322.29,420.68,322.34,420.68,322.34z"/>
					<path class="st1" d="M415.78,324.03c0.15,0.19,0.33,0.34,0.5,0.45c0.34,0.22,0.61,0.26,0.61,0.26s-0.09-0.19-0.23-0.47
						c-0.06-0.13-0.12-0.27-0.17-0.4c-0.03-0.08-0.02-0.11-0.06-0.21c-0.01-0.05-0.02-0.12-0.02-0.18c-0.02-0.13,0-0.25,0.02-0.36
						c0.02-0.06,0.03-0.11,0.05-0.16c0.04-0.06,0.07-0.12,0.1-0.17c0.08-0.12,0.13-0.26,0.1-0.37c-0.03-0.11-0.1-0.15-0.1-0.15
						c0,0-0.01,0.06-0.08,0.09c-0.06,0.04-0.17,0.05-0.32,0.09c-0.07,0.01-0.17,0.05-0.25,0.1c-0.1,0.06-0.18,0.12-0.24,0.21
						c-0.14,0.16-0.2,0.39-0.18,0.62c0.02,0.12,0.04,0.23,0.1,0.36C415.63,323.8,415.72,323.95,415.78,324.03z"/>
				</g>
			</g>
			<path class="st4" d="M423.45,294.28l2,14.02l1.16,5.5h-3.16c0,0-0.5,4.75-1.75,5.25s-2.75,1.31-2.75,1.31s-2-1.06,0-2.06
				s0.99-3.5,0.63-4.5c-0.36-1,0.38-4.19,0.38-4.19l-0.75-2.28l-3-14.52L423.45,294.28z"/>
		</g>
		<path class="st5" d="M406.02,191.91c4.76,2.72,13.59,56.4,14.76,57.47c1.17,1.08,0,3.58,0,3.58s4.33,30.46,5.5,35.98
			c1.17,5.52-1.17,10.6-1.17,10.6l0.33,3.75c0,0-4.83,2.33-7.83,0.67l-0.33-3.79c0,0-4.33-6.86-4.83-8.95
			c-0.5-2.09-4.78-29.72-4.78-29.72s0.5-4.67,0-6c-0.5-1.33-1.88-4.49-1.88-5.5c0-1.02-5.67-33.42-5.67-33.42L406.02,191.91z"/>
		<g>
			<path class="st6" d="M411.96,432.25h-25.89c-1.81-10.29,1.08-20.6,1.08-20.6l11.84-2.03c1.08,6.51,2.38,9.07,4.17,10.39
				c0.01,0,0.01,0,0.01,0c1.31,0.95,2.88,1.27,4.83,1.94c2.23,0.78,3.41,2.19,4,3.72C413.16,428.72,411.96,432.25,411.96,432.25z"/>
			<path class="st5" d="M411.99,425.68c-6.38,0.8-20.41,2.17-19.55-1.53c0.71-3.09,6.63-3.92,10.71-4.13c0.01,0,0.01,0,0.01,0
				c1.31,0.95,2.88,1.27,4.83,1.94C410.22,422.73,411.4,424.14,411.99,425.68z"/>
		</g>
		<g>
			<path class="st6" d="M358.27,432.25h-25.89c0,0-0.82-2.42-0.44-4.99c0.31-2.09,1.42-4.27,4.41-5.31
				c2.24-0.78,3.96-1.07,5.37-2.39c1.53-1.44,2.68-4.11,3.64-9.95l11.84,2.03C357.19,411.65,360.06,421.96,358.27,432.25z"/>
			<path class="st5" d="M331.93,427.26c0.31-2.09,1.42-4.27,4.41-5.31c2.24-0.78,3.96-1.07,5.37-2.39c3.28,1.01,7.86,2.86,9.28,5.67
				C352.97,429.1,337.84,428.49,331.93,427.26z"/>
		</g>
		<path class="st7" d="M400.62,391.75c0,0-1.77-69.73-2.49-92.99c-0.84-27.18-1.08-31.23-1.08-31.23l-25.02-5.14l-25.02,5.14
			c0,0-0.25,7.4-1,29.22c-0.82,23.75-2.56,95-2.56,95c2.05,2.35-2.64,24.36-1.18,24.42c1.46,0.06,11.29,1.73,16.59,7.13l1.13-22.63
			c0,0,8.17-100.3,9.17-101.31c0.56-0.56,1.84-1.07,2.87-1.4c1.03,0.34,2.31,0.84,2.87,1.4c1,1.01,8.27,99.06,8.27,99.06l2.04,24.88
			c5.3-5.4,15.13-7.07,16.59-7.13C403.26,416.12,398.98,405.68,400.62,391.75z"/>
		<path class="st8" d="M337.4,192.48c0,0-11.49,21.72-13.83,34.65l8.17,14.76c0,0,9.04-12.8,13.75-18.56
			C350.2,217.56,337.4,192.48,337.4,192.48z"/>
		<path class="st5" d="M372.07,183.75c24.38,0,34.72,8.73,34.72,8.73s-10.51,42.01-7.17,95.49c0,0-18.82,4.08-55.33,0
			c0,0-0.49-56.11-6.83-95.49C337.45,192.48,349.36,183.75,372.07,183.75z"/>
		<path class="st0" d="M365.62,175.44c0,0,2.07,6.51,0,9.02c0,0,2.15,4.51,6.01,4.71c4.46,0.23,6.01-4.71,6.01-4.71
			s-2.36-6.29,0-8.5L365.62,175.44z"/>
		<g>
			<path class="st4" d="M359.81,163.72c0,0-3.25-3.24-3.65,0.55c-0.46,4.39,3.52,6.16,4.3,4.76
				C361.24,167.63,359.81,163.72,359.81,163.72z"/>
			<path class="st4" d="M382.54,163.95c0,0,3.25-3.24,3.65,0.55c0.46,4.39-3.52,6.16-4.3,4.76
				C381.11,167.86,382.54,163.95,382.54,163.95z"/>
			<path class="st4" d="M370.83,179.62c-7.2,0-11.27-4.71-11.27-18.82c0-7.28,3.7-11.75,11.77-11.75c8.07,0,11.47,4.47,11.47,11.75
				C382.81,175.96,378.28,179.62,370.83,179.62z"/>
			<path class="st9" d="M380.42,165.83c0.13,0.72-0.51,1.44-1.41,1.6s-1.74-0.3-1.87-1.03c-0.13-0.72,0.51-1.44,1.41-1.6
				C379.46,164.65,380.29,165.11,380.42,165.83z"/>
			<path class="st9" d="M365.6,166.22c-0.05,0.73-0.83,1.28-1.75,1.22c-0.92-0.06-1.62-0.7-1.57-1.44c0.05-0.73,0.83-1.28,1.75-1.22
				C364.94,164.85,365.65,165.49,365.6,166.22z"/>
			<g>
				<path class="st10" d="M377.12,158.51c-0.1,0-0.19-0.04-0.26-0.11c-1-1.05-2.75-1-2.77-1c-0.19,0-0.36-0.15-0.37-0.35
					c-0.01-0.2,0.15-0.36,0.35-0.37c0.08,0,2.1-0.05,3.32,1.23c0.14,0.14,0.13,0.37-0.01,0.51
					C377.3,158.47,377.21,158.51,377.12,158.51z"/>
			</g>
			<g>
				<path class="st10" d="M363.56,158.51c-0.09,0-0.18-0.03-0.25-0.1c-0.14-0.14-0.15-0.36-0.01-0.51c1.22-1.28,3.24-1.23,3.32-1.23
					c0.2,0.01,0.35,0.17,0.35,0.37c-0.01,0.2-0.18,0.35-0.37,0.35c-0.01,0-1.78-0.04-2.77,1
					C363.75,158.47,363.65,158.51,363.56,158.51z"/>
			</g>
			<path class="st11" d="M376.5,162.33c0,0.89-0.4,1.62-0.9,1.62c-0.5,0-0.9-0.73-0.9-1.62c0-0.89,0.4-1.62,0.9-1.62
				C376.1,160.71,376.5,161.43,376.5,162.33z"/>
			<path class="st11" d="M366.88,162.33c0,0.89-0.4,1.62-0.9,1.62c-0.5,0-0.9-0.73-0.9-1.62c0-0.89,0.4-1.62,0.9-1.62
				C366.48,160.71,366.88,161.43,366.88,162.33z"/>
			<path class="st11" d="M367.35,172.3c0,0,5.89,0.42,9.15-1.15c0,0-1.38,2.02-5.32,1.98C367.69,173.09,367.35,172.3,367.35,172.3z"
				/>
			<g>
				<path class="st9" d="M372.09,169.64c-0.7,0-1.41-0.18-1.63-0.24l0.2-0.74c0.76,0.21,1.94,0.33,2.2,0.03
					c0.09-0.11,0.05-0.35-0.1-0.67c-1.04-2.21-1.26-7.82-1.27-8.06l0.77-0.03c0,0.06,0.22,5.69,1.19,7.76
					c0.3,0.63,0.29,1.14-0.01,1.49C373.16,169.53,372.63,169.64,372.09,169.64z"/>
			</g>
			<path class="st10" d="M359.8,166.19c0,0,0.27-3.86,0.89-6.27c0,0-1.07-5.01,1.78-7.78c0,0,4.19,0.61,8.71,0.61
				c4.52,0,7.6-0.61,7.6-0.61s2.17,1.94,1.92,7.02c0,0,1.01,3.45,1.88,6.95c0,0,5.87-20.99-12.63-20.99
				C351.2,145.12,359.8,166.19,359.8,166.19z"/>
			<path class="st10" d="M359.2,150.18c0,0,0.56-4.16,4.74-5.06c4.18-0.9,12.34,0.26,14.84-2.4c0,0,0.72,2.08,0.67,3.73l1.33-2.9
				c0,0,4.16,6.51-2,8.59C372.62,154.22,359.2,150.18,359.2,150.18z"/>
		</g>
		<path class="st12" d="M359.56,194.77c4.14,6.79-5.36,82.87-5.36,82.87s-17.24,0.09-16.74-2.25s3-59.31,3-59.31s-2.49-22.18-3-23.6
			s15.99-6.67,15.99-6.67L359.56,194.77z"/>
		<path class="st13" d="M359.56,194.77c0,0-4.86-13.16-7.36-13.69s-3.75,3.61-3.75,3.61s-3.96,2.27-4,3.21
			C344.41,188.84,359.56,194.77,359.56,194.77z"/>
		<path class="st12" d="M383.47,195.88c-1.52,4.43,4.48,80.91,4.48,80.91s11.75,1.55,15.25-1.09l-1.09-58.51
			c0,0,4.77-21.78,4.68-24.7s-15.71-6.67-15.71-6.67L383.47,195.88z"/>
		<path class="st13" d="M383.47,195.88c0,0,2.32-11.92,5.15-14.29c2.83-2.37,7.83,4.3,7.83,4.3s4.17,0.18,4.17,2.59
			C400.62,190.89,383.47,195.88,383.47,195.88z"/>
		<g>
			<path class="st0" d="M331.23,182.62c0,0,1.14-3.17,1.99-3.4c0.85-0.23,2.12-1.56,0.73-1.81c-1.4-0.26-2.31,1.02-2.31,1.02
				l-2.88,2.25L331.23,182.62z"/>
			<path class="st14" d="M337.64,178.43l-21.31-0.64c0,0-0.89-0.42-0.32-1.4l21.55,0.28l2.75,0.98L337.64,178.43z"/>
			<path class="st4" d="M323.41,200.16l0.99-9.67c0,0-1.19-5.72-1.32-7.49c-0.13-1.78,4.34-6.64,5.26-6.77
				c0.92-0.13,3.68-0.53,4.2-0.79c0.53-0.26,0.79,1.31,0,1.71c-0.79,0.39-2.63,1.23-2.63,1.23s2.1,1.59,2.36,2.35
				c0.26,0.76-0.79,4.44-0.79,4.44s1.05,2.21,0.66,4.26c-0.39,2.05-1.58,3.17-1.58,3.17l-0.26,8.58L323.41,200.16z"/>
			<path class="st0" d="M329.92,178.38c-0.91-0.33-4.54,2.65-4.54,2.65l3.5-3.62c0.81,0.15,1.87,0.59,1.87,0.59L329.92,178.38z"/>
			<polygon class="st0" points="327.45,181.43 330.01,179.62 332,180.27 330.95,179.22 330.03,179.22 			"/>
			<path class="st0" d="M328.76,182.3l1.56-0.87c0,0,1.47,0.49,1.86,0.87c0.39,0.38-0.01,3.09-0.53,3.23c-0.52,0.14-1.45,0-1.45,0
				l0.35-1.17l0.21,0.44c0,0,1.16-1.28,0.93-2.05c-0.24-0.77-1.43-0.76-1.43-0.76L328.76,182.3z"/>
		</g>
		<path class="st0" d="M330.2,185.54c0,0,1.79,1.71,1.8,4.27c0,0,0.8-2.23-0.35-4.27H330.2z"/>
		<path class="st5" d="M323.57,195.88c0,0,3.63,1.32,7.38,0v4.84c0,0,2,6.34,2.25,10.34s-1.46,30.83-1.46,30.83
			s-2.79,6.96-8.17,4.44c-5.37-2.52-5.62-12.01-5.62-12.89c0-0.88,2-27.46,2-27.46l3.03-4.4L323.57,195.88z"/>
	</g>
	<g>
		<path class="st0" d="M591.77,259.81c4,1.78,10.33,0.98,13.33-2.42s0.09-8.32-6.89-10.67s-16.34,6.77-16.34,6.77
			S587.1,257.72,591.77,259.81z"/>
		<path class="st0" d="M577.7,251.19c3.23,2.65,13.59,5.76,15.26,4.89c1.67-0.87,3.15-5.84,2.06-6.95
			c-1.09-1.11-5.23-5.16-5.23-5.16s-2.45-3.39-4.65-3.77c-2.19-0.38-4.39-1.22-4.39-1.22s-0.65,1.63,0.55,2.56
			c1.2,0.94,4.85,2.54,4.22,3.35c-0.62,0.82-1.26,4.36-2.75,4.86C581.28,250.25,577.7,251.19,577.7,251.19z"/>
		<path class="st0" d="M607.77,210.06l-11.25,34.74c0,0,1.32,12.26,6.32,13.76s17.44-38.79,17.44-38.79l1.74-4.72L607.77,210.06z"/>
		<g>
			<path class="st7" d="M574.25,223.23l63.45,25.03c0,0,4.65,1.84,1.19,5.96c-3.46,4.12-66.66-20.06-66.66-20.06
				S578.54,228.09,574.25,223.23z"/>
			<path class="st15" d="M574.25,223.23c-2.51-2.29-7.92,8.72-2.03,10.93C578.11,236.38,578.11,226.74,574.25,223.23z"/>
			<path class="st7" d="M568.69,235.91l66.08,16.89c0,0,4.85,1.24,1.93,5.76c-2.92,4.52-68.65-11.55-68.65-11.55
				S573.55,240.2,568.69,235.91z"/>
			<polygon class="st15" points="573.67,228.91 638.39,252.84 636.7,258.56 568.49,242.34 			"/>
			<path class="st15" d="M568.69,235.91c-2.78-1.96-6.77,9.64-0.64,11.1C574.17,248.47,572.96,238.91,568.69,235.91z"/>
			<path class="st7" d="M561.75,226.94l64.79,21.33c0,0,4.75,1.57,1.53,5.88c-3.22,4.31-67.71-16.18-67.71-16.18
				S566.31,231.54,561.75,226.94z"/>
			<path class="st15" d="M561.75,226.94c-2.64-2.14-7.4,9.16-1.39,11.03C566.36,239.84,565.8,230.22,561.75,226.94z"/>
		</g>
		<path class="st13" d="M615.88,178.69c-4.86,1.87-12.86,34.13-12.86,34.13s8.01,6.92,17.26,6.95S615.88,178.69,615.88,178.69z"/>
		<path class="st5" d="M663.5,162.56l13.02,112.05c0,0,9,2.41,15.75-1.7l-14.38-111.8C677.89,161.11,671.58,157.56,663.5,162.56z"/>
		<g>
			<path class="st13" d="M580.3,430.4c0,1.09,0.11,1.85,0.11,1.85h31.45c0-0.62-0.01-1.24-0.04-1.85
				c-0.36-8.23-2.95-15.37-2.95-15.37l-7.86-3.38c-0.68,4.05-2.42,6.64-4.61,8.33c-0.58,0.46-1.18,0.83-1.8,1.15
				c-0.29,0.16-0.58,0.3-0.88,0.43c-0.66,0.3-1.33,0.54-2.01,0.74c-2.78,0.84-5.58,1.02-7.55,1.32
				C580.81,424.16,580.3,428.03,580.3,430.4z"/>
			<path class="st12" d="M592.36,422.91c0,0,3.22,0.17,3.03,1.08c-0.2,0.92-2.78,2.5-5.7,2.75c-2.92,0.25-6.33-1.92-6.33-1.92
				s0.25-0.25,3.58-0.75C590.28,423.57,592.36,422.91,592.36,422.91z"/>
		</g>
		<g>
			<path class="st13" d="M638.52,425.4c2.26-1.19,2.96-5.08,3.17-7.99h13.76c2.17,5.51,3.46,8.69,2.57,12.99
				c-0.13,0.63-0.32,1.24-0.59,1.85h-20.95c0,0-0.28-0.79-0.36-1.85C635.98,428.8,636.27,426.58,638.52,425.4z"/>
			<path class="st12" d="M653.24,425.24c0,0-4.18-1.92-8.75-1.54c-4.57,0.38-6.98,2.75-6.79,3c1.52,1.99,6.92-1,10.67,0.63
				S653.24,425.24,653.24,425.24z"/>
		</g>
		<path class="st5" d="M670.45,266.82c-2.08,62.78-10,115.67-10.75,137.92c-0.38,11.4-1.68,19.09-1.68,19.09s-10.86-8.78-17.01-2.26
			l0.21-9.91l1.13-5.98l2.73-110.98l-4.85-0.31l-23.21,111.03c0,0-5.13,14.68-5.17,19.83l-16.47-5.26l4.36-11.88l-0.45-3.36
			l2.2-8.67c0,0,20.19-118.32,18.88-130.26c0,0-0.09-1.99,1.08-2.49c9.48-4.06,40.25-2.37,48.67-0.93
			C671.63,262.66,670.45,266.82,670.45,266.82z"/>
		<path class="st5" d="M690.27,210.58c1.21,2.84-5.37,13.38-12.17,10.97c-6.79-2.41-5.8-10.6-1.9-14.3
			C680.1,203.56,687.44,203.94,690.27,210.58z"/>
		<path class="st0" d="M684.1,202.91c0,0,14.17,26.15,12.67,28.98c-1.5,2.83-4.83,6.5-8.17,5.83c-3.33-0.67-14-23.74-14-23.74
			S674.94,201.43,684.1,202.91z"/>
		<path class="st13" d="M673.89,180.3c5.38,1.75,16.38,30.28,16.38,30.28s-7.72-4.4-13.75,1.31c-6.03,5.71-8.38-16.31-6.32-23.07
			C672.27,182.06,673.89,180.3,673.89,180.3z"/>
		<path class="st6" d="M668.97,258.24v4.16c0,0-11.43,4.43-27.72,4.43s-20.95-3.5-20.95-3.5l-0.03-3.92L668.97,258.24z"/>
		<path class="st5" d="M655.22,259.2c0,0,0.38,4.63,0,7.63h2.38c0,0,0.63-3.75,0-7.63H655.22z"/>
		<path class="st5" d="M628.98,266.9c0,0-0.06-4.64,0.52-7.61l-2.37-0.16c0,0-0.88,3.7-0.52,7.61L628.98,266.9z"/>
		<path class="st16" d="M646.68,260.89v5.8c0,0.32-0.26,0.59-0.59,0.59h-9.69c-0.32,0-0.59-0.26-0.59-0.59v-5.71
			c0-0.32,0.26-0.58,0.58-0.59l9.69-0.09C646.42,260.3,646.68,260.56,646.68,260.89z"/>
		<path class="st12" d="M673.89,180.3c-3.67-0.9-15.78-2.48-29.39-2.69c-13.61-0.21-23.28-0.31-28.61,1.07
			c0,0,2.04,72.08-0.2,100.38c0,0,31.73,5.66,56.98,0.67c0,0-0.71-36.51,0.22-57.41C674.22,192.48,673.89,180.3,673.89,180.3z"/>
		<path class="st0" d="M639.38,170.39c0,0,1.55,5.11-0.9,7.75c0,0-2.65,7.92,5.85,9.18c2.62,0.39,7.69-2.52,7.24-7.75
			c0,0-1.72-4.35,0-7.17L639.38,170.39z"/>
		<g>
			<path class="st4" d="M657.07,157.53c0,0,3.4-3.39,3.81,0.57c0.48,4.59-3.69,6.44-4.5,4.98
				C655.57,161.62,657.07,157.53,657.07,157.53z"/>
			<path class="st4" d="M633.28,157.77c0,0-3.4-3.39-3.82,0.57c-0.48,4.59,3.69,6.44,4.5,4.98
				C634.78,161.86,633.28,157.77,633.28,157.77z"/>
			<path class="st4" d="M633.01,154.47c0,10.03,1.9,15.25,5.26,17.72c1.95,1.45,4.4,1.97,7.26,1.97c2.91,0,5.33-0.73,7.2-2.49
				c2.99-2.78,4.59-8.14,4.59-17.2c0-7.62-3.87-12.29-12.31-12.29S633.01,146.85,633.01,154.47z"/>
			<path class="st9" d="M635.5,159.74c-0.13,0.76,0.53,1.51,1.48,1.67c0.95,0.17,1.82-0.31,1.95-1.07c0.13-0.76-0.53-1.51-1.48-1.67
				C636.51,158.5,635.64,158.98,635.5,159.74z"/>
			<path class="st9" d="M651.01,160.15c0.05,0.77,0.87,1.34,1.83,1.28c0.96-0.06,1.7-0.74,1.65-1.5c-0.05-0.77-0.87-1.34-1.83-1.28
				C651.69,158.71,650.96,159.38,651.01,160.15z"/>
			<g>
				<path class="st17" d="M637.95,151.96c0.1,0.02,0.2-0.01,0.29-0.07c1.2-0.92,3-0.6,3.03-0.59c0.2,0.03,0.4-0.1,0.44-0.3
					c0.04-0.2-0.1-0.4-0.3-0.44c-0.08-0.02-2.16-0.39-3.62,0.74c-0.16,0.13-0.2,0.36-0.07,0.53
					C637.77,151.89,637.85,151.94,637.95,151.96z"/>
			</g>
			<g>
				<path class="st17" d="M652.37,152.01c0.09-0.01,0.18-0.06,0.24-0.13c0.13-0.16,0.11-0.4-0.05-0.53
					c-1.43-1.17-3.52-0.86-3.6-0.85c-0.21,0.03-0.35,0.22-0.31,0.43c0.03,0.21,0.23,0.34,0.43,0.31c0.01,0,1.85-0.27,3.01,0.68
					C652.17,151.99,652.27,152.02,652.37,152.01z"/>
			</g>
			<path class="st11" d="M638.73,156.21c0,0.94,0.42,1.69,0.94,1.69c0.52,0,0.94-0.76,0.94-1.69s-0.42-1.69-0.94-1.69
				C639.15,154.51,638.73,155.27,638.73,156.21z"/>
			<path class="st11" d="M648.79,156.21c0,0.94,0.42,1.69,0.94,1.69c0.52,0,0.94-0.76,0.94-1.69c0-0.94-0.42-1.69-0.94-1.69
				C649.21,154.51,648.79,155.27,648.79,156.21z"/>
			<path class="st17" d="M652.98,144.8c0,0-4.24,0.64-15.76-0.19c0,0-0.86,3.91-2.81,5.63c0,0-1.22,5.5-1.11,9.55
				c0,0-7.33-22.03,12.94-21.45c20.6,0.59,10.82,21.02,10.82,21.02s-0.12-3.12-0.79-6.58C656.27,152.78,653.54,149.26,652.98,144.8z
				"/>
			<g>
				<path class="st9" d="M645.06,161.11l0.56-0.57l-1.49-1.48c1.45-2.04,1.44-6.77,1.44-6.98l-0.8,0c0,0.05,0.01,5.14-1.47,6.74
					l-0.26,0.28L645.06,161.11z"/>
			</g>
			<path class="st11" d="M640.88,164.78c0,0,2.91,0.26,8.29-0.14c0,0-1.24,3.26-4.85,2.93
				C640.72,167.24,640.88,164.78,640.88,164.78z"/>
		</g>
		<path class="st4" d="M670.2,207.26c0,0,19.99,17.1,22.9,18.8c2.91,1.7,6,6.17,4.83,13c-1.17,6.83-10.67,2.17-13.17,0
			c-2.5-2.17-21.63-24.92-21.63-24.92L670.2,207.26z"/>
		<path class="st4" d="M582.79,248.78c0.1,0.46,1.07,1.9,1.07,1.9s0.39-2.86,0.55-3.29c0.54-1.45,1.04-2.07,1.92-1.68
			c0.53,0.24,0.96,0.78,0.69,2.13c-0.24,1.2-0.11,3.17-0.11,3.17s0.62-1.51,0.88-2.05c0.32-0.65,0.76-1.1,1.3-1.12
			c0.35-0.01,1.24,0.33,1.08,1.3c-0.08,0.46-0.61,1.59-0.57,1.83c0.05,0.45,0.19,2.06-0.63,2.23c-0.81,0.18-1.58-0.85-1.58-0.85
			s0.19,1.06-0.93,1.12c-1.14,0.06-2.16-1.18-2.16-1.18s-0.35,1.24-1.55,0.75c-1.18-0.49-1.91-1.79-1.91-1.79s-0.13,0.83-1.34,0.74
			c-0.76-0.07-1.79-0.53-2.15-1.29c-0.69-1.45-0.81-2.8-0.58-3.99c0.21-1.13,0.88-1.98,1.48-2.87c0.31-0.46,1.95,0.59,1.48,2.77
			c-0.25,1.16-0.48,1.97,0.66,3.62l-0.31-2.8c0,0,0.58-2.64,1.33-3.08c0.34-0.2,1.65-0.08,1.76,1.67
			C583.21,246.82,582.65,248.12,582.79,248.78z"/>
		<g>
			<g>
				<path class="st18" d="M662.88,219.29l-1.07-0.07c-7.13-0.49-37.29-2.12-37.59-2.14l-0.95-0.05v-12.45l0.94-0.06
					c15.91-1.03,37.57,1.52,37.79,1.54l0.88,0.11V219.29z M625.27,215.13c4.95,0.27,27.85,1.51,35.61,2.02v-9.2
					c-4.12-0.45-21.82-2.25-35.61-1.49V215.13z"/>
			</g>
			<g>
				<rect x="628.5" y="208.31" class="st18" width="2" height="4.44"/>
			</g>
			<g>
				<rect x="633.77" y="209.03" class="st18" width="2" height="3.71"/>
			</g>
			<g>
				<rect x="639.17" y="209.81" class="st18" width="2" height="3.6"/>
			</g>
			<g>
				
					<rect x="644" y="209.03" transform="matrix(0.9973 -0.0739 0.0739 0.9973 -13.8389 48.2155)" class="st18" width="2" height="4.39"/>
			</g>
			<g>
				<rect x="649.27" y="210.52" class="st18" width="2" height="2.89"/>
			</g>
			<g>
				<rect x="655.02" y="209.81" class="st18" width="2" height="3.6"/>
			</g>
		</g>
		<g>
			<path class="st6" d="M666.44,199.31c0,0-0.83-11.86,0-20.43l-5.52-1.32c0,0,0.36,18.29,1.86,23.15L666.44,199.31z"/>
			<path class="st4" d="M670.94,199.77c-3.23-3.48-7.73-0.19-7.73-0.19c-0.49-0.33-3.06,1.19-3.06,1.19s-0.79,5.79,0.94,7.5
				c0,0-0.24,4.24,2.05,5.87c2.29,1.63,7.22,0.97,8.97-0.96C673.87,211.24,672.38,201.33,670.94,199.77z"/>
			<path class="st0" d="M663.21,199.58c-1.18,0.97,0.36,3.33,0.36,3.33s-0.48,1.07-0.33,1.9c0.15,0.84,1.43,2.06,1.43,2.06
				s-0.18,0.58-0.09,1.44c0.09,0.86,1.31,2.17,1.31,2.17s-0.35,0.42-0.03,1.27c0.32,0.85,3.66,1.17,3.66,1.17s-2.09,1.02-2.29,1.24
				c-1.79,2.05-4.56,0.86-5.35,0c-1.07-1.16-1.15-4.91-1.15-4.91c-2.79-3.75-4.21-7.48-2.5-9.46c2.08-2.42,2.96,0.33,2.96,0.33
				L663.21,199.58z"/>
			<path class="st0" d="M663.58,202.91c0,0,0.85-0.57,1.5-0.86c0.65-0.29,4.11,0.11,4.11,0.11s-2.78-0.94-3.65-0.78
				c-0.87,0.16-2.51,1.47-2.51,1.47L663.58,202.91z"/>
			<path class="st0" d="M664.08,206.86c0,0,0.56-0.62,1.19-1.09c0.62-0.47,4.86-0.14,4.86-0.14s0.41,0.24-0.74,0.51
				c-1.15,0.27-4.98,0.75-5.18,1.04C664.01,207.47,664.08,206.86,664.08,206.86z"/>
			<path class="st0" d="M665.45,210.26c0,0,0.74-0.87,1.33-1.05s3.28-0.29,3.42,0.06c0.14,0.35-3.75,0.92-4.31,1.22
				C665.34,210.79,665.45,210.26,665.45,210.26z"/>
			<path class="st4" d="M659.97,198.81c0.91-0.15,1.9,4.59,1.9,4.59s0.14,1.41-1.9,0.74C657.94,203.47,655.43,199.56,659.97,198.81z
				"/>
			<path class="st6" d="M666.1,212.74l3.42,0.19c0,0,2.63,14.88,7,22l-2,7.5C674.52,242.43,667.92,226.52,666.1,212.74z"/>
		</g>
	</g>
	<g>
		<g>
			<path class="st5" d="M79.39,164.85l2.54,112.77c0,0,8.74,3.23,15.84-0.22l-3.93-112.65C93.85,164.74,87.9,160.62,79.39,164.85z"
				/>
			<path class="st19" d="M153.29,275.31c0,0-30.77,15.63-56.53,0.22c-18.72-11.2,39.47-60.58,39.47-60.58l13.62-1.45L153.29,275.31z
				"/>
			<path class="st20" d="M147.97,180.21l31.11,4.06c-2.13-6.76-2.41-25.45-4.88-38.22l7.73-0.61c1.89,11.71,6.39,20.07,10.42,37.26
				c1,4.28,1.11,15.87-0.6,16.02c-1.71,0.15-13.4,5.22-46.3,0L147.97,180.21z"/>
			<path class="st19" d="M149.84,178.69c0,0,9.42,2.75,10.92,2.68c1.5-0.07,5.25-0.01,7.5,0.21c2.25,0.22,8.04,2.16,9.25,1.77
				c1.21-0.39-0.63-3.66-0.63-3.66l0.99-1.56c0,0-1.49-2.28,0.76-1.87c2.25,0.42,11.88,3.21,15.13,5.87c3.25,2.67,0,4.92,0,4.92
				s0.63,3,0.38,3.81s-0.13,7.08-0.38,8.13c-0.25,1.05-31.13,3.32-39.13,2.62S149.84,178.69,149.84,178.69z"/>
			<path class="st20" d="M181.51,146.07c-1.68,1.45-5.68,1.2-5.68,1.2s-4.88-3.55-6.13-5.05c-0.32-0.39-1.81-2.1-3.31-4.85
				c-1.26-2.32-3.2-3.44-3.06-3.56c2.31-1.98,5.1,2.67,7.09,3.42c0,0,0.01,0,0.03,0.01c0.12,0.05,0.24,0.08,0.35,0.09
				c0.19,0.02,0.36,0,0.53-0.08c0,0-0.05-1.23-0.12-3.01c-0.15-4.32-0.36-11.86-0.01-12.66c0.5-1.12,1.63-0.56,1.63-0.56
				s0.12,3.87,1,9.62c0,0,3.37-0.5,4-0.12c0.62,0.37,1.25,0.75,2.12,0.75c0.88,0,1.75,0.14,2.38,2.07
				C182.95,135.27,183.18,144.63,181.51,146.07z"/>
			<path class="st21" d="M181.2,136.71c0.07,0.18-0.81,0.93-0.81,0.93c-0.06,0.57-1.06,2.13-2.12,2.13c-1.07,0-3.07,0.87-3.07,0.87
				c-1.42-2.21-3.54-3.05-4.4-3.31c0.19,0.02,0.36,0,0.53-0.08c0,0-0.05-1.23-0.12-3.01l1.24,0.15c0-1,0.44-3.37,1.38-3.75
				c0,0,0.06,0.57-0.25,1.57c-0.31,1-0.13,1.56-0.06,1.87c0.06,0.31,2.06,0.38,2.25-0.75c0.17-1.05,1.06-1.72,1.17-1.8
				c-0.55,0.76-0.92,2.86-0.67,3.49c0.25,0.62,1.93,0.62,1.93,0.62s0-0.56,0.19-1.56s1-1.5,1-1.5s-1.37,2.81-0.37,3.38
				c1,0.56,1.25-0.32,1.25-0.32c0.37,0.07,0.94-1.12,0.94-1.12S181.14,136.52,181.2,136.71z"/>
			<path class="st20" d="M69.51,232.44c0,0,16.55,28.16,23.09,35.6l9.17,3.49l-5.78,15.03l-7.39-10.89c0,0-22.34-18.72-32.59-34.12
				L69.51,232.44z"/>
			<path class="st19" d="M91.17,181.37c-5.66-0.24-38.66,47.94-39.16,52.73s5,10.77,5,10.77l16.25-9.22l-1.69-3.21
				c0,0,2.19-0.19,2.94,0c0.75,0.19,1.5-2.56,1.5-2.56l17.75-16.52L91.17,181.37z"/>
			<path class="st7" d="M72.87,237.74c0,0,2.31-1.57,1.81-2.09c-0.5-0.52-2.24-1.58-2.24-1.58s1.21-1.64-0.86-1.64
				c-2.06,0-18.63,4.19-19.6,6.19c-0.97,2,2.51,2.9,2.51,2.9s0.36,5.86,1.52,5.56c1.17-0.3,3.48-0.92,3.48-0.92
				S65.06,238.19,72.87,237.74z"/>
			<g>
				<path class="st6" d="M186.58,430.4c0,1.09-0.11,1.85-0.11,1.85h-31.45c0-0.62,0.01-1.24,0.04-1.85
					c0.36-8.23,2.95-15.37,2.95-15.37l7.86-3.38c0.68,4.05,2.42,6.64,4.61,8.33c0.58,0.46,1.18,0.83,1.8,1.15
					c0.29,0.16,0.58,0.3,0.88,0.43c0.66,0.3,1.33,0.54,2.01,0.74c2.78,0.84,5.58,1.02,7.55,1.32
					C186.07,424.16,186.58,428.03,186.58,430.4z"/>
				<path class="st5" d="M174.51,422.91c0,0-3.22,0.17-3.03,1.08c0.2,0.92,2.78,2.5,5.7,2.75c2.92,0.25,6.33-1.92,6.33-1.92
					s-0.25-0.25-3.58-0.75C176.59,423.57,174.51,422.91,174.51,422.91z"/>
			</g>
			<g>
				<path class="st6" d="M128.36,425.4c-2.26-1.19-2.96-5.08-3.17-7.99h-13.76c-2.17,5.51-3.46,8.69-2.57,12.99
					c0.13,0.63,0.32,1.24,0.59,1.85h20.95c0,0,0.28-0.79,0.36-1.85C130.89,428.8,130.6,426.58,128.36,425.4z"/>
				<path class="st5" d="M113.64,425.24c0,0,4.18-1.92,8.75-1.54c4.57,0.38,6.98,2.75,6.79,3c-1.52,1.99-6.92-1-10.67,0.63
					S113.64,425.24,113.64,425.24z"/>
			</g>
			<path class="st12" d="M96.43,266.82c2.08,62.78,10,115.67,10.75,137.92c0.38,11.4,1.68,19.09,1.68,19.09s10.86-8.78,17.01-2.26
				l-0.21-9.91l-1.13-5.98l-2.73-110.98l4.85-0.31l23.21,111.03c0,0,5.13,14.68,5.17,19.83l16.47-5.26l-4.36-11.88l0.45-3.36
				l-2.2-8.67c0,0-20.19-118.32-18.88-130.26c0,0,0.09-1.99-1.08-2.49c-9.48-4.06-40.25-2.37-48.67-0.93
				C95.25,262.66,96.43,266.82,96.43,266.82z"/>
			<path class="st6" d="M96.76,258.24v4.16c0,0,11.43,4.43,27.72,4.43c16.28,0,20.95-3.5,20.95-3.5l0.03-3.92L96.76,258.24z"/>
			<path class="st5" d="M110.51,259.2c0,0-0.38,4.63,0,7.63h-2.38c0,0-0.63-3.75,0-7.63H110.51z"/>
			<path class="st5" d="M136.75,266.9c0,0,0.06-4.64-0.52-7.61l2.37-0.16c0,0,0.88,3.7,0.52,7.61L136.75,266.9z"/>
			<path class="st16" d="M119.05,260.89v5.8c0,0.32,0.26,0.59,0.59,0.59h9.69c0.32,0,0.59-0.26,0.59-0.59v-5.71
				c0-0.32-0.26-0.58-0.58-0.59l-9.69-0.09C119.31,260.3,119.05,260.56,119.05,260.89z"/>
			<path class="st3" d="M91.84,180.3c3.67-0.9,15.78-2.48,29.39-2.69c13.61-0.21,23.28-0.31,28.61,1.07c0,0-4.39,53.87-1.08,93.82
				c0,0-22.75,10.8-54.12-0.47c0,0-0.87-28.8-1.8-49.71C91.51,192.48,91.84,180.3,91.84,180.3z"/>
			<path class="st12" d="M98.23,274.09c0,0-3.29,4.48-3.96,10.82l3.96,7.61C98.23,292.52,101.68,279.28,98.23,274.09z"/>
			<path class="st7" d="M120.56,176.26c10.04,1.24,17.21,5.35,19.54,20.24c2.33,14.89,10.83,84.22,10.83,84.22l7.33-9.2
				c0,0-6.75-19.64-3.63-69.9c0.55-8.82-4.8-22.94-4.8-22.94s-2.24-1.2-13.62-2.1C126.55,175.82,120.56,176.26,120.56,176.26z"/>
			<path class="st7" d="M118.51,177.68c0,0-6.9,0.05-10.66,4.46c-3.76,4.42-3.44,82.27-14.1,86.34l-1.16-0.44c0,0-4.17-12-4-13.91
				c0.17-1.91,2.5-8.86,2.5-8.86l0.7-30.09c0,0-3.89-28.97,0.04-34.88C91.84,180.3,109.76,175.63,118.51,177.68z"/>
			<path class="st19" d="M119.7,174.63c0,0-8.57,0.97-13,2.53c-4.43,1.56-5.6,9.9-5.6,9.9l3.89-3.13l1.14,6.94
				c0,0,1.96-13.47,14.81-14.07c14.41-0.67,18.25,15.29,18.25,15.29l0.23-8.16h4.02c0,0-3-5.34-6-6.77
				C134.44,175.72,128.81,174.53,119.7,174.63z"/>
			<path class="st21" d="M126.35,170.39c0,0-1.55,5.11,0.9,7.75c0,0-4.05,7.95-13.09,1.44c0,0,1.72-4.35,0-7.17L126.35,170.39z"/>
			<g>
				<path class="st20" d="M108.68,158.73c0,0-3.25-3.24-3.65,0.55c-0.46,4.39,3.52,6.16,4.3,4.76
					C110.11,162.64,108.68,158.73,108.68,158.73z"/>
				<path class="st20" d="M131.42,158.96c0,0,3.25-3.24,3.65,0.55c0.46,4.39-3.52,6.16-4.3,4.76
					C129.98,162.87,131.42,158.96,131.42,158.96z"/>
				<path class="st20" d="M119.7,174.63c-7.2,0-11.27-4.71-11.27-18.82c0-7.28,3.7-11.75,11.77-11.75c8.07,0,11.47,4.47,11.47,11.75
					C131.68,170.97,127.15,174.63,119.7,174.63z"/>
				<path class="st22" d="M129.29,160.84c0.13,0.72-0.51,1.44-1.41,1.6c-0.91,0.16-1.74-0.3-1.87-1.03
					c-0.13-0.72,0.51-1.44,1.41-1.6C128.33,159.66,129.16,160.11,129.29,160.84z"/>
				<path class="st22" d="M114.47,161.23c-0.05,0.73-0.83,1.28-1.75,1.22c-0.92-0.06-1.62-0.7-1.57-1.44
					c0.05-0.73,0.83-1.28,1.75-1.22C113.81,159.86,114.52,160.5,114.47,161.23z"/>
				<g>
					<path class="st5" d="M126,153.51c-0.1,0-0.19-0.04-0.26-0.11c-1-1.05-2.75-1-2.77-1c-0.19,0-0.36-0.15-0.37-0.35
						c-0.01-0.2,0.15-0.36,0.35-0.37c0.08,0,2.1-0.05,3.32,1.23c0.14,0.14,0.13,0.37-0.01,0.51
						C126.17,153.48,126.08,153.51,126,153.51z"/>
				</g>
				<g>
					<path class="st5" d="M112.43,153.51c-0.09,0-0.18-0.03-0.25-0.1c-0.14-0.14-0.15-0.37-0.01-0.51c1.22-1.28,3.24-1.23,3.32-1.23
						c0.2,0.01,0.35,0.17,0.35,0.37c-0.01,0.2-0.18,0.35-0.37,0.35c-0.01,0-1.78-0.04-2.77,1
						C112.62,153.48,112.52,153.51,112.43,153.51z"/>
				</g>
				<path class="st11" d="M125.37,157.34c0,0.89-0.4,1.62-0.9,1.62c-0.5,0-0.9-0.73-0.9-1.62c0-0.89,0.4-1.62,0.9-1.62
					C124.97,155.72,125.37,156.44,125.37,157.34z"/>
				<path class="st11" d="M115.75,157.34c0,0.89-0.4,1.62-0.9,1.62c-0.5,0-0.9-0.73-0.9-1.62c0-0.89,0.4-1.62,0.9-1.62
					C115.35,155.72,115.75,156.44,115.75,157.34z"/>
				<path class="st11" d="M115.75,166.91c0,0,6.35,0.82,9.62-0.75c0,0-1.85,4.33-5.32,3.94
					C116.58,169.71,115.75,166.91,115.75,166.91z"/>
				<g>
					<path class="st22" d="M120.96,164.65c-0.7,0-1.41-0.18-1.63-0.24l0.2-0.74c0.76,0.21,1.94,0.33,2.2,0.03
						c0.09-0.11,0.05-0.35-0.1-0.67c-1.04-2.21-1.26-7.82-1.27-8.06l0.77-0.03c0,0.06,0.22,5.69,1.19,7.76
						c0.3,0.63,0.29,1.14-0.01,1.49C122.03,164.54,121.5,164.65,120.96,164.65z"/>
				</g>
				<path class="st5" d="M108.67,161.2c0,0,0.27-3.86,0.89-6.27c0,0-1.07-5.01,1.78-7.78c0,0,4.19,0.61,8.71,0.61s7.6-0.61,7.6-0.61
					s2.17,1.94,1.92,7.02c0,0,1.01,3.45,1.88,6.95c0,0,5.87-20.99-12.63-20.99C100.07,140.13,108.67,161.2,108.67,161.2z"/>
				<g>
					<path class="st23" d="M128.41,157.67c0,1.85-1.5,3.35-3.35,3.35c-1.85,0-3.35-1.5-3.35-3.35c0-1.85,1.5-3.35,3.35-3.35
						C126.91,154.32,128.41,155.82,128.41,157.67z"/>
					<path class="st23" d="M118.51,158.29c0,1.85-1.5,3.35-3.35,3.35c-1.85,0-3.35-1.5-3.35-3.35c0-1.85,1.5-3.35,3.35-3.35
						C117.01,154.93,118.51,156.43,118.51,158.29z"/>
					<path class="st23" d="M118.51,158.29c0,0,1.8-1,3.2-0.25"/>
					<path class="st24" d="M128.41,157.44c0,0,2.03-0.53,3.23-0.53"/>
					<path class="st24" d="M111.81,158.29c0,0-1.68-0.65-3.38-0.27"/>
				</g>
				<path class="st5" d="M131.68,152.89c0,0,2.34-3.17,1.93-5.92c-0.42-2.75-1.91-6.17-7.25-7.92c0,0,3.1,1.67,4.17,3.5
					c0,0-3.68-5.75-13.34-4.75c-9.67,1-13.08,7.83-12.67,10.83c0,0,0.37-2.5,2.18-3.75c0,0-3.17,5,0.11,8.63l1.62-0.92
					c0,0-3.41-6.78,2.75-7c6.17-0.21,11.37,0,11.37,0s3.67-2.87,5.86,0C130.6,148.47,131.68,152.89,131.68,152.89z"/>
				<path class="st5" d="M122.55,147.06c0,0-7.02,1.83-7.07,4.63c0,0-0.7-3.38,3.58-4.63S122.55,147.06,122.55,147.06z"/>
			</g>
			<path class="st7" d="M177.59,175.72c0,0,10.33,3.38,13.67,2.57c0,0,1.76,0.1,2.59,1.52c0.83,1.42,0,1.83,0,1.83s1.22,1,1.36,3.08
				c0.14,2.08-1.44,2.34-1.44,2.34s-14.68-2.9-15.84-4.41c-1.16-1.51-0.74-4.18-0.74-4.18S175.91,175.81,177.59,175.72z"/>
			<g>
				<path class="st5" d="M145.36,127.28c-0.31,1.18-2.4,1.65-4.65,1.05c-2.25-0.6-3.83-2.04-3.51-3.22c0.31-1.18,2.4-1.65,4.65-1.05
					C144.1,124.66,145.67,126.1,145.36,127.28z"/>
				<path class="st10" d="M157.51,110.49c1.66-6.21-2.04-12.59-8.25-14.25c-6.21-1.66-12.59,2.04-14.25,8.25
					c-1.06,3.97,0.08,8,2.65,10.83l0.49,2.05l10.23,2.73l1.45-1.54C153.46,117.39,156.45,114.46,157.51,110.49z"/>
				<g>
					<path class="st25" d="M146.1,128.51l-10.16-2.71c-0.18-0.05-0.29-0.22-0.26-0.41l1.45-9.04c0.03-0.21,0.24-0.35,0.45-0.29
						l11.95,3.19c0.21,0.06,0.32,0.28,0.24,0.48l-3.24,8.57C146.46,128.47,146.27,128.56,146.1,128.51z"/>
				</g>
				<g>
					<path class="st3" d="M136.73,118.44c-0.23-0.06-0.39-0.28-0.37-0.53c0.03-0.27,0.27-0.48,0.54-0.45l11.96,1.11
						c0.27,0.03,0.48,0.27,0.45,0.54c-0.03,0.27-0.27,0.48-0.54,0.45l-11.96-1.11C136.79,118.45,136.76,118.45,136.73,118.44z"/>
				</g>
				<g>
					<path class="st3" d="M136.34,120.93c-0.23-0.06-0.39-0.28-0.37-0.53c0.02-0.27,0.27-0.48,0.54-0.45l12.6,1.15
						c0.28,0.03,0.48,0.27,0.45,0.54c-0.02,0.27-0.27,0.48-0.54,0.45l-12.6-1.15C136.39,120.94,136.36,120.94,136.34,120.93z"/>
				</g>
				<g>
					<path class="st3" d="M135.94,123.41c-0.23-0.06-0.39-0.28-0.37-0.53c0.03-0.28,0.27-0.48,0.54-0.45l12.06,1.11
						c0.27,0.03,0.48,0.27,0.45,0.54c-0.03,0.28-0.27,0.48-0.54,0.45l-12.06-1.11C136,123.43,135.97,123.42,135.94,123.41z"/>
				</g>
				<g>
					<path class="st3" d="M135.55,125.91c-0.23-0.06-0.39-0.28-0.37-0.53c0.02-0.27,0.27-0.48,0.54-0.45l11.54,1.06
						c0.28,0.03,0.48,0.27,0.45,0.54c-0.02,0.27-0.27,0.48-0.54,0.45l-11.54-1.06C135.6,125.92,135.58,125.91,135.55,125.91z"/>
				</g>
				<path class="st26" d="M141.35,116.56c0,0,1.45-5,0.25-8l1.96,0.52l0.82-0.82l0.13,2.41l1.53-1.96l0.22,2.17l1.19-1.41l0.3,0.81
					l2.29,0.61c0,0-2.82,2.18-4.16,6.87"/>
				<path class="st27" d="M151.52,93.71c0,0,1.5-6.45,2.83-5.97C155.68,88.21,151.52,93.71,151.52,93.71z"/>
				<path class="st27" d="M159.74,99.97c0,0,5.61-3.59,5.94-1.93C166.02,99.71,159.74,99.97,159.74,99.97z"/>
				<path class="st27" d="M138.85,94.45c0,0-1.15-6.41-2.49-5.58C135.02,89.71,138.85,94.45,138.85,94.45z"/>
				<path class="st27" d="M131.51,104.54c0,0-4.98-1.67-4.57,0C127.35,106.21,131.51,104.54,131.51,104.54z"/>
				<path class="st27" d="M161.35,111.71c0,0,4.69-0.21,4.34,1.31C165.35,114.54,161.35,111.71,161.35,111.71z"/>
			</g>
			<path class="st25" d="M137.72,199.63v38.43c-7.82,1.63-29.83,0.7-29.83,0.7c1.01-9.25-0.61-39.13-0.61-39.13
				C116.37,200.58,137.72,199.63,137.72,199.63z"/>
			<path class="st28" d="M137.72,199.63v38.43c-7.82,1.63-29.83,0.7-29.83,0.7C122.77,225.83,137.72,199.63,137.72,199.63z"/>
			<polygon class="st28" points="130.52,241.82 137.71,241.06 137.71,243.03 130.52,243.54 			"/>
			<path class="st6" d="M89.77,177.49c0,0,6.74,0.73,7.25,20.52c0.5,19.79-11,48.1-11,48.1l1.5,2.78c0,0,14.67-24.93,13.58-47.13
				c-1.08-22.2-7.34-24.27-7.34-24.27H89.77z"/>
		</g>
		<g>
			<path class="st5" d="M456.65,207.59l72.33,86.56c0,0,8.85-2.92,12.24-10.05l-73.34-85.61
				C467.88,198.5,460.66,198.99,456.65,207.59z"/>
			<path class="st21" d="M538.84,196.74c0,0,9.13,6.95,12.79,8.55c3.67,1.6,4.17,8.82,1.17,10.79s-32.34,7.79-32.34,7.79
				l-3.23-12.12c0,0,19.07-0.91,23.57-2.72l-4.08-3.06L538.84,196.74z"/>
			<path class="st29" d="M513.63,210.6c1.71-0.48,11.58,0.61,13.74,0c0,0,2.1,2.52,2.28,6.33s-3.31,10.65-3.31,10.65
				s-4.31,1.21-5.13,4.9C520.4,236.18,513.63,210.6,513.63,210.6z"/>
			<g>
				<g>
					<path class="st5" d="M466.92,417.19l7.42-0.61c0,0,10.24-58.36,12.66-64.32c2.08-5.14,10.97-24.8,13.92-39.9
						c0.14,0.07,1.06-0.09,2.31-0.33h0.01c0.31-0.07,0.64-0.14,0.99-0.21c0.31-0.07,0.64-0.14,0.97-0.21
						c0.25,15.05,3.52,33.61,4.52,38.81c1.21,6.31-0.51,65.79-0.51,65.79l7.13,0.88c13.11-46.47,7.04-67.12,7.04-67.12
						s12.02-41.83,7.76-56.58c-1.41-4.92-3.15-9.38-4.83-13.13c-0.14-0.31-0.27-0.61-0.42-0.9c-3.2-6.98-6.11-11.31-6.11-11.31
						l-14.05,1.76l-0.13-0.23l-0.41,0.08v4.41l-1.78-0.09l-0.4-0.03H503l-5.83-0.31l-0.8-0.04l-5.1-0.27c0,0-3.06,4.87-7.42,12.7
						c-0.16,0.3-0.33,0.6-0.49,0.9c-1.55,2.81-3.25,5.97-5.03,9.4c-7.05,13.65-4.64,52.83-4.64,52.83S463.1,369.06,466.92,417.19z"
						/>
				</g>
			</g>
			<path class="st20" d="M519.79,268.05c-13.84,10.45-28.51,5.28-28.51,5.28s-19.77-41.95-19.32-49.76c0.1-1.72,1.35-2.89,3.25-3.67
				c1.46-0.61,3.28-0.97,5.27-1.19c7.18-0.79,16.29,0.5,16.29,0.5s5.02-3.51,10.27-5.95c2.37-1.1,4.79-1.98,6.82-2.21
				c1.46-0.18,2.72-0.02,3.61,0.63C522.36,215.22,519.79,268.05,519.79,268.05z"/>
			<path class="st21" d="M497.94,201.73c0,0-1.17,14.1,2.76,16.12c0,0-2.9,5.35-10.67,2.09c0,0,1.31-7.25-3.83-15.87
				C482.75,198.3,497.94,201.73,497.94,201.73z"/>
			<g>
				<path class="st13" d="M517.92,415.38c0,0-0.9,5.2,0.08,8.69c0.6,2.11,3.05,4.81,1.52,8.18h-14.05c0,0-1.93-3.8,1.09-7.34
					c1.67-1.96,1.3-11.05,1.3-11.05c1.59,0.25,1.29,1.52,1.29,1.52s-0.39-4.29,3.21-3.71c4.31,0.69,3.6,4.47,3.6,4.47
					S516.35,414.76,517.92,415.38z"/>
				<path class="st12" d="M518.56,427.02c0,0-4.23-5.04-11.75-1.01c0,0-0.05,3.54,3.56,2.87
					C513.98,428.2,516.36,430.9,518.56,427.02z"/>
			</g>
			<g>
				<path class="st13" d="M465.94,415.38c0,0,0.9,5.2-0.08,8.69c-0.6,2.11-3.05,4.81-1.52,8.18h14.05c0,0,1.93-3.8-1.09-7.34
					c-1.67-1.96-1.3-11.05-1.3-11.05c-1.59,0.25-1.29,1.52-1.29,1.52s0.39-4.29-3.21-3.71c-4.31,0.69-3.6,4.47-3.6,4.47
					S467.51,414.76,465.94,415.38z"/>
				<path class="st12" d="M465.3,427.02c0,0,4.23-5.04,11.75-1.01c0,0,0.05,3.54-3.56,2.87C469.87,428.2,467.49,430.9,465.3,427.02z
					"/>
			</g>
			<g>
				<path class="st20" d="M504.03,195.99c0,0,3.19-3.14,3.55,0.56c0.42,4.29-3.48,5.98-4.23,4.61
					C502.6,199.8,504.03,195.99,504.03,195.99z"/>
				<path class="st20" d="M481.84,196.04c0,0-3.14-3.19-3.56,0.51c-0.49,4.28,3.39,6.03,4.16,4.68
					C483.21,199.87,481.84,196.04,481.84,196.04z"/>
				<path class="st20" d="M493.15,211.42c7.03,0.05,11.03-4.51,11.14-18.28c0.05-7.1-3.53-11.49-11.4-11.55
					c-7.88-0.06-11.23,4.27-11.28,11.38C481.49,207.77,485.89,211.37,493.15,211.42z"/>
				<path class="st22" d="M483.9,197.9c-0.13,0.71,0.48,1.41,1.36,1.57c0.88,0.16,1.7-0.28,1.83-0.99c0.13-0.71-0.48-1.41-1.36-1.57
					C484.85,196.75,484.03,197.19,483.9,197.9z"/>
				<path class="st22" d="M498.36,198.39c0.04,0.72,0.8,1.26,1.7,1.2c0.9-0.05,1.59-0.67,1.55-1.39c-0.04-0.72-0.8-1.26-1.7-1.2
					C499.01,197.05,498.32,197.68,498.36,198.39z"/>
				<g>
					<path class="st7" d="M486.2,190.27c0.11,0.12,0.28,0.15,0.43,0.07c1.24-0.67,2.86-0.1,2.87-0.09c0.18,0.07,0.38-0.03,0.45-0.21
						c0.07-0.18-0.03-0.38-0.21-0.45c-0.08-0.03-1.93-0.68-3.45,0.14c-0.17,0.09-0.23,0.31-0.14,0.48
						C486.17,190.22,486.18,190.24,486.2,190.27z"/>
				</g>
				<g>
					<path class="st7" d="M497.28,189.72c0.05,0.03,0.12,0.05,0.18,0.05c0.02,0,1.73-0.03,2.7,1c0.13,0.14,0.36,0.15,0.5,0.02
						c0.14-0.13,0.15-0.35,0.02-0.5c-1.18-1.26-3.14-1.22-3.23-1.22c-0.19,0-0.35,0.17-0.34,0.36
						C497.1,189.55,497.17,189.66,497.28,189.72z"/>
				</g>
				<g>
					<path class="st11" d="M497.09,194.54c-0.01,0.87,0.38,1.58,0.87,1.59c0.49,0,0.88-0.7,0.89-1.57c0.01-0.87-0.38-1.58-0.87-1.59
						C497.5,192.96,497.1,193.66,497.09,194.54z"/>
				</g>
				<path class="st11" d="M496.2,203.75c0,0-4.41-0.36-6.35-2c0,0,0.92,2.47,3.32,2.71C495.56,204.7,496.2,203.75,496.2,203.75z"/>
				<g>
					<path class="st11" d="M489.6,194.09c0,0-0.7-1.03-1.55-0.88c-0.85,0.15-1.42,0.86-1.42,0.86l-1.24-0.67l1.25,0.17
						c0,0,0.63-0.7,1.46-0.7C489.28,192.88,489.6,194.09,489.6,194.09z"/>
					<path class="st11" d="M496.42,194.41c0,0,0.66-2.15,1.5-1.98c0.84,0.16,1.47,2.01,1.47,2.01l1.25-0.65l-1.25,0.15
						c0,0-0.64-1.93-1.47-1.94C496.73,191.98,496.42,194.41,496.42,194.41z"/>
				</g>
				<path class="st7" d="M481.78,198.02c0,0,1.76-5.89,1.95-10.45c0,0,1.92-4.44,9.15-4.5c7.23-0.06,9.23,4.97,9.23,4.97
					s0.76,6.48,1.85,10.97c0,0,0.37-2.29,1.51-4.02c0,0,5.09-17.84-12.58-17.84c-17.91-0.01-12.42,17.88-12.42,17.88
					S481.2,195.22,481.78,198.02z"/>
				<g>
					<path class="st22" d="M492.68,199.42c0.15,0.08,0.31,0.15,0.5,0.2l0.2-0.73c-0.62-0.17-0.76-0.56-0.76-0.85
						c0-0.41,0.25-0.8,0.48-0.87c0.13-0.04,0.27,0.05,0.41,0.27l0.64-0.41c-0.47-0.73-1.04-0.66-1.27-0.59
						c-0.58,0.17-1.03,0.87-1.02,1.6C491.87,198.64,492.17,199.13,492.68,199.42z"/>
				</g>
				<path class="st7" d="M494.44,178.31c0,0,1.79-3.76,0.5-6.42c-2.39-4.92-10.23-3.56-12.17,0.58c-2.49,5.3,1.75,7.25,1.75,7.25
					s-4.42-2.26-3.25-5.26c0,0-1.75,2.84,0.54,4.76c2.29,1.92,11.3,1.72,13.12-0.08c1.83-1.8,1.75-4.24,1.75-4.24
					S496.44,177.47,494.44,178.31z"/>
				<path class="st7" d="M493.76,177.51c0,0,0.04-0.06,0.13-0.17c0.08-0.12,0.2-0.3,0.34-0.54c0.27-0.48,0.64-1.19,0.86-2.11
					c0.22-0.91,0.25-2.04-0.19-3.13c-0.22-0.52-0.55-1.09-0.97-1.5c-0.44-0.43-0.97-0.79-1.56-1.05c-2.38-1.05-5.23-0.82-6.99,0.04
					c-0.9,0.42-1.52,1-1.86,1.47c-0.17,0.23-0.29,0.43-0.36,0.57c-0.07,0.14-0.11,0.21-0.11,0.21s0.03-0.08,0.1-0.22
					c0.06-0.15,0.17-0.35,0.33-0.59c0.32-0.49,0.93-1.11,1.83-1.58c1.77-0.96,4.66-1.37,7.26-0.37c0.64,0.26,1.26,0.61,1.78,1.08
					c0.54,0.49,0.9,1.05,1.19,1.66c0.56,1.22,0.58,2.54,0.38,3.58c-0.2,1.05-0.57,1.85-0.85,2.4c-0.14,0.27-0.27,0.48-0.36,0.62
					c-0.1,0.14-0.15,0.22-0.15,0.22L493.76,177.51z"/>
			</g>
			<path class="st21" d="M513.86,211.05c-1.79,4.38-11.55,11.59-13.09,12.39c-1.7,0.89-1.83,4.15-1.83,4.15s-2.3-3.36-7.07-3.62
				c-3.67-0.2-12.7-2.86-16.66-4.07c1.46-0.61,3.28-0.97,5.27-1.19c7.18-0.79,16.29,0.5,16.29,0.5s5.02-3.51,10.27-5.95
				C509.41,212.16,511.83,211.28,513.86,211.05z"/>
			<path class="st29" d="M478.23,218.4c0,0,4.21,5.49,13.63,8.21c9.42,2.73,16.43-4.83,16.36-8.91c-0.07-4.08-0.61-5.29-0.61-5.29
				s6.18-2.64,9.18-1.83s9.64,10.79,2.99,57.46c0,0-8.37,12.05-28.51,5.28c0,0-19.14-39.04-20.14-45.74S475.99,218.09,478.23,218.4z
				"/>
			<g>
				<path class="st12" d="M533.72,306.81c-5.5-0.25-29.42,10-29.42,10l-0.51-1.1l-0.65-1.4l-1.32,1.39l-1.05,1.11
					c-6.45-3-26.24-5.68-26.24-5.68s-0.37-0.73-0.37-2.61c-0.01-1.98,0.4-5.22,2.06-10.21c3.25-9.75,15.06-24.98,15.06-24.98
					c17.06,3.52,28.51-5.28,28.51-5.28s5.68,6.01,10.18,18.26c3.08,8.39,3.7,14.9,3.79,18.17
					C533.79,305.99,533.72,306.81,533.72,306.81z"/>
				<path class="st13" d="M489.24,276.05c0,0,2.56,3.57,15.44,2.32s17.41-7.4,17.41-7.4l-2.37-3.79c0,0-12.17,10.04-28.88,5.25
					L489.24,276.05z"/>
				<path class="st12" d="M506.65,275.7c0,0.6-0.49,1.09-1.09,1.09c-0.6,0-1.09-0.49-1.09-1.09s0.49-1.09,1.09-1.09
					C506.16,274.6,506.65,275.09,506.65,275.7z"/>
				<path class="st13" d="M517.72,272.39c0,0,2.42,8.17,6.58,10.92c4.17,2.75,5.67,3,5.67,3s-6.56-13.89-9.51-15.75
					C517.52,268.7,517.72,272.39,517.72,272.39z"/>
				<path class="st13" d="M495.8,276.79c0,0-5.42,9.52-13.92,11.18c0,0,6.5-10.92,8.5-12.58
					C492.38,273.72,495.8,276.79,495.8,276.79z"/>
				<path class="st13" d="M504.8,277.64c0,0,1.92,26.08-1.66,36.67c0,0,4.48-8.08,2.53-36.67H504.8z"/>
				<path class="st13" d="M508.97,276.79c0,0,1.67,12.42,1.08,15.64c-0.58,3.21-4.39,2.8-4.39,2.8l-0.11,1.25
					c0,0,4.16-0.43,5.07-4.05c0.92-3.62-0.92-15.64-0.92-15.64H508.97z"/>
				<path class="st13" d="M474.16,308.52c4.51,0.19,19.17,1.25,27.66,7.18l-1.05,1.11c-6.45-3-26.24-5.68-26.24-5.68
					S474.16,310.4,474.16,308.52z"/>
				<path class="st13" d="M533.72,306.81c-5.5-0.25-29.42,10-29.42,10l-0.51-1.1l0.17-0.07c0,0,18.93-12.99,29.8-11.16
					C533.79,305.99,533.72,306.81,533.72,306.81z"/>
			</g>
			<g>
				<path class="st20" d="M538.45,195.88c2.25-0.04,4.45,2.15,4.34,6.03c-0.12,3.88-1.08,9.08-0.66,12.36
					c0.43,3.29-1.99,1.4-2.24-0.12c-0.26-1.52,0.07-4.63-1.74-5.57c-0.3-0.16-0.86-0.31-1.6-0.44c-3.7-0.68-11.91-1.06-15.15-0.82
					c-3.87,0.29-4.36,0.25-4.38-0.99c-0.02-1.63,6.57-1.09,10.66-1.82l0.01,0c0.27-0.05,0.54-0.1,0.78-0.16l1.07-8.36
					c0,0,4.64-0.05,7.48-0.09C537.58,195.9,538.08,195.89,538.45,195.88z"/>
				<path class="st21" d="M529.54,196l-1.07,8.36c-0.24,0.06-0.51,0.11-0.78,0.16l0,0.01c0,0,1.6-0.13,2.33,1.26
					c0,0,0.28-0.53,1.16-0.53c0.88,0.01,2.89,0.57,3.36,0.43c0.35-0.1,1.58,1.31,2.01,2.46c0.73,0.13,1.3,0.28,1.6,0.44
					c-1.05-0.88-2.07-2.81-1.06-4.76c1-1.91,1.04-2.5,1.05-2.53c0,0-1.99-3.11-1.13-5.38C534.18,195.95,529.54,196,529.54,196z"/>
				<path class="st20" d="M528.48,204.36c0,0-1.14-0.64-1.11-1.14c0.03-0.5,1.03-1.61,1.03-1.61s-0.98-0.89-0.86-1.63
					c0.12-0.74,1.25-1.44,1.25-1.44s-0.63-1.18-0.51-1.53c0.25-0.74,2.4-2,3.63-1.93c1.39,0.07,3.04,0.48,3,1.24
					c-0.05,1-2.86,0.81-2.86,0.81l-1.13,0.94c0,0,3.15-0.42,3.63,0.36c0.49,0.78,1.27,1.14,0.98,1.8c-0.29,0.66-1.58-0.08-1.58-0.08
					s-2.66,0.45-3.3,1.17c0,0,2.08-0.31,3.22,0.25c1.14,0.56,2.19,0.95,1.54,1.58c-0.65,0.63-2.12,0.05-2.12,0.05
					S529.54,204.16,528.48,204.36z"/>
			</g>
			<path class="st30" d="M476.97,241.14c4.32,2.05,9.77-13,8.07-14.82c-1.7-1.82-6.57-4.35-9.41-3.77
				c-2.83,0.58-5.58,2.75-5.25,6.42C470.72,232.64,473.63,239.56,476.97,241.14z"/>
			<path class="st21" d="M495.18,232.25c-2.17-0.98-19.25-11.88-21.02-11.26c-1.78,0.62-6.02,2.25-5.02,9.33
				s17.43,12.87,20.46,14.89c3.04,2.02,8.94-0.92,8.94-0.92S498.86,233.9,495.18,232.25z"/>
			<path class="st29" d="M484.43,225.97c0,0-6.47-3.1-9.97,1.62c-3.5,4.72,1.08,12.64,2.5,13.55c0,0-6.13-3.75-7.98-9.08
				c-1.85-5.33-0.87-9.33,6.22-12.91C475.21,219.14,480.82,220.46,484.43,225.97z"/>
			<path class="st6" d="M478.94,218.04c0,0,5.87-3.39,17.95,12.31c12.07,15.69,27.25,39.69,27.25,39.69l1.33-1.98
				c0,0-9.11-19.8-23.07-37.1c-13.96-17.3-20.23-15.28-20.23-15.28L478.94,218.04z"/>
			<path class="st20" d="M537.54,219.82c-3.25,0.07-11.42-0.77-15.08-1.65c-0.73-0.17-1.28-0.35-1.57-0.52
				c-1.75-1.04-1.25-4.13-1.43-5.66c-0.17-1.53-2.47-3.55-2.23-0.24c0.24,3.31-1.01,8.44-1.34,12.31c-0.33,3.87,1.75,6.18,4,6.26
				c0.37,0.01,5.35,1.04,6.48,1.16c1.22,0.13,3.44-1.01,3.73-1.73c0.14-0.35-0.42-1.55-0.42-1.55s1.16-0.63,1.32-1.36
				s-0.77-1.68-0.77-1.68s1.06-1.06,1.12-1.55c0.05-0.49-1.01-1.18-1.04-1.2c0.25-0.04,0.51-0.08,0.78-0.12l0.01,0
				c4.13-0.5,10.68,0.41,10.75-1.23C541.9,219.82,541.42,219.74,537.54,219.82z"/>
			<path class="st20" d="M516.46,219.77c-0.33,2.26-15.74,11.08-21.28,12.47c-5.54,1.39-8.86,9.67-5.71,11.63
				c10.84,6.76,25.45-14.58,29.06-14.49C522.14,229.47,516.46,219.77,516.46,219.77z"/>
		</g>
	</g>
	<g>
		<path class="st31" d="M276.96,188.99c1.34,6.07-2.49,21.04-0.83,25.22c1.67,4.18,2.9,10.55,1.12,15.45
			c-1.78,4.9-25.34,7.73-31.81-0.77c-6.47-8.5-0.53-19,0-22.5c0.53-3.5-0.41-11.63,0-16.42c0.41-4.79,13.66-12.31,21.44-10.27
			C274.67,181.73,276.96,188.99,276.96,188.99z"/>
		<g>
			<g>
				<path class="st17" d="M287.43,417.19l-7.42-0.61c0,0-10.24-58.36-12.66-64.32c-2.08-5.14-10.97-24.8-13.92-39.9
					c-0.14,0.07-1.06-0.09-2.31-0.33h-0.01c-0.31-0.07-0.64-0.14-0.99-0.21c-0.31-0.07-0.64-0.14-0.97-0.21
					c-0.25,15.05-3.52,33.61-4.52,38.81c-1.21,6.31,0.51,65.79,0.51,65.79l-7.13,0.88c-13.11-46.47-7.04-67.12-7.04-67.12
					s-12.02-41.83-7.76-56.58c1.41-4.92,3.15-9.38,4.83-13.13c0.14-0.31,0.27-0.61,0.42-0.9c3.2-6.98,6.11-11.31,6.11-11.31
					l14.05,1.76l0.13-0.23l0.41,0.08v4.41l1.78-0.09l0.4-0.03h0.01l5.83-0.31l0.8-0.04l5.1-0.27c0,0,3.06,4.87,7.42,12.7
					c0.16,0.3,0.33,0.6,0.49,0.9c1.55,2.81,3.25,5.97,5.03,9.4c7.05,13.65,4.64,52.83,4.64,52.83S291.25,369.06,287.43,417.19z"/>
			</g>
		</g>
		<g>
			<path class="st6" d="M236.79,415.38c0,0,0.9,5.2-0.08,8.69c-0.6,2.11-3.05,4.81-1.52,8.18h14.05c0,0,1.93-3.8-1.09-7.34
				c-1.67-1.96-1.3-11.05-1.3-11.05c-1.59,0.25-1.29,1.52-1.29,1.52s0.39-4.29-3.21-3.71c-4.31,0.69-3.6,4.47-3.6,4.47
				S238.36,414.76,236.79,415.38z"/>
			<path class="st5" d="M236.15,427.02c0,0,4.23-5.04,11.75-1.01c0,0,0.05,3.54-3.56,2.87C240.73,428.2,238.35,430.9,236.15,427.02z
				"/>
		</g>
		<g>
			<path class="st6" d="M288.77,415.38c0,0-0.9,5.2,0.08,8.69c0.6,2.11,3.05,4.81,1.52,8.18h-14.05c0,0-1.93-3.8,1.09-7.34
				c1.67-1.96,1.3-11.05,1.3-11.05c1.59,0.25,1.29,1.52,1.29,1.52s-0.39-4.29,3.21-3.71c4.31,0.69,3.6,4.47,3.6,4.47
				S287.2,414.76,288.77,415.38z"/>
			<path class="st5" d="M289.41,427.02c0,0-4.23-5.04-11.75-1.01c0,0-0.05,3.54,3.56,2.87C284.84,428.2,287.22,430.9,289.41,427.02z
				"/>
		</g>
		<path class="st32" d="M195.83,240.97c-1.05,3-0.89,8.89,2.16,12.37c0.94,1.07,3.94-0.24,4.44-1.3c0.51-1.07,2.32-5.08,2.32-5.08
			s1.78-2.64,1.48-4.3c-0.3-1.67-0.27-3.46-0.27-3.46s-1.33-0.04-1.69,1.06c-0.36,1.1-0.55,4.12-1.29,3.89
			c-0.75-0.23-3.44,0.24-4.19-0.7C198.05,242.51,195.83,240.97,195.83,240.97z"/>
		<path class="st2" d="M236.91,211.67c-4.5,0.17-26.45,43.11-26.45,43.11h-11.04c0,0,2.66,13.27,15.41,14.07
			c9.02,0.57,22.5-28.29,22.5-28.29L236.91,211.67z"/>
		<path class="st33" d="M263.11,273.32c0,0-14.67,5.17-28.51-5.28c0,0-2.57-52.83,2.32-56.37c0.93-0.68,2.27-0.82,3.81-0.61
			c1.99,0.27,4.33,1.13,6.62,2.19c1.89,0.88,3.75,1.89,5.35,2.84c2.86,1.67,4.92,3.11,4.92,3.11s3.95-0.56,8.7-0.72
			c2.46-0.08,5.14-0.05,7.59,0.22c2.4,0.26,4.59,0.75,6.14,1.6c1.41,0.76,2.3,1.82,2.38,3.26
			C282.88,231.37,263.11,273.32,263.11,273.32z"/>
		<path class="st32" d="M256.43,201.72c0,0,1.17,14.1-2.76,16.12c0,0,2.9,5.35,10.67,2.09c0,0-1.31-7.25,3.83-15.87
			C271.62,198.3,256.43,201.72,256.43,201.72z"/>
		<g>
			<path class="st31" d="M249.28,200.72c0,0-4.89-2.8-3.64-14.28s16.39-12.1,19.13-10.17c0,0,7.12-0.44,10.56,6.68
				s1.19,16.08-4.44,20.04C265.27,206.94,249.28,200.72,249.28,200.72z"/>
			<path class="st33" d="M250.34,195.99c0,0-3.19-3.14-3.55,0.56c-0.42,4.29,3.48,5.98,4.23,4.61
				C251.77,199.8,250.34,195.99,250.34,195.99z"/>
			<path class="st33" d="M272.53,196.04c0,0,3.14-3.19,3.56,0.51c0.49,4.28-3.39,6.03-4.16,4.68
				C271.16,199.87,272.53,196.04,272.53,196.04z"/>
			<path class="st33" d="M261.22,211.42c-7.03,0.05-11.03-4.51-11.14-18.28c-0.05-7.1,3.53-11.49,11.4-11.55
				c7.88-0.06,11.23,4.27,11.28,11.38C272.87,207.76,268.48,211.36,261.22,211.42z"/>
			<path class="st32" d="M270.47,197.89c0.13,0.71-0.48,1.41-1.36,1.57c-0.88,0.16-1.7-0.28-1.83-0.99
				c-0.13-0.71,0.48-1.41,1.37-1.57C269.52,196.74,270.34,197.19,270.47,197.89z"/>
			<path class="st32" d="M256.01,198.39c-0.04,0.72-0.8,1.26-1.7,1.2c-0.9-0.05-1.59-0.67-1.55-1.39c0.04-0.72,0.8-1.26,1.7-1.2
				C255.36,197.05,256.05,197.67,256.01,198.39z"/>
			<g>
				<path class="st31" d="M267.37,190.72c-0.14,0.08-0.31,0.06-0.43-0.06c-0.98-1.01-2.7-0.96-2.71-0.96
					c-0.19,0.01-0.36-0.14-0.37-0.34c-0.01-0.19,0.14-0.36,0.34-0.37c0.08,0,2.05-0.07,3.25,1.17c0.13,0.14,0.13,0.36-0.01,0.5
					C267.42,190.69,267.39,190.71,267.37,190.72z"/>
			</g>
			<g>
				<path class="st31" d="M257.09,189.72c-0.05,0.03-0.12,0.05-0.18,0.05c-0.02,0-1.73-0.03-2.7,1c-0.13,0.14-0.36,0.15-0.5,0.02
					c-0.14-0.13-0.15-0.35-0.02-0.5c1.18-1.26,3.14-1.22,3.23-1.22c0.19,0,0.35,0.17,0.34,0.36
					C257.27,189.55,257.19,189.66,257.09,189.72z"/>
			</g>
			<g>
				<path class="st31" d="M267.19,194.51c0.01,0.87-0.38,1.58-0.87,1.59c-0.49,0-0.88-0.7-0.89-1.57c-0.01-0.87,0.38-1.58,0.87-1.59
					C266.79,192.93,267.19,193.63,267.19,194.51z"/>
				<path class="st31" d="M257.27,194.53c0.01,0.87-0.38,1.58-0.87,1.59c-0.49,0-0.88-0.7-0.89-1.57c-0.01-0.87,0.38-1.58,0.87-1.59
					C256.87,192.96,257.27,193.66,257.27,194.53z"/>
			</g>
			<path class="st34" d="M258.18,203.04c0,0,4.38,0.58,6.63-0.61c0,0-1.42,2.22-3.81,1.95C258.6,204.1,258.18,203.04,258.18,203.04z
				"/>
			<g>
				<path class="st31" d="M264.77,194.09c0,0,0.62-2.16,1.47-2.01c0.85,0.15,1.5,1.99,1.5,1.99l1.24-0.67l-1.25,0.17
					c0,0-0.67-1.92-1.5-1.91C265.05,191.66,264.77,194.09,264.77,194.09z"/>
				<path class="st31" d="M257.95,194.41c0,0-0.66-2.15-1.5-1.98c-0.84,0.16-1.47,2.01-1.47,2.01l-1.25-0.65l1.25,0.15
					c0,0,0.64-1.93,1.47-1.94C257.63,191.98,257.95,194.41,257.95,194.41z"/>
			</g>
			<g>
				<path class="st32" d="M261.68,199.42c-0.15,0.08-0.31,0.15-0.5,0.2l-0.2-0.73c0.62-0.17,0.76-0.56,0.76-0.85
					c0-0.41-0.25-0.8-0.48-0.87c-0.13-0.04-0.27,0.05-0.41,0.27l-0.64-0.41c0.47-0.73,1.04-0.66,1.27-0.59
					c0.58,0.17,1.03,0.87,1.02,1.6C262.5,198.63,262.2,199.12,261.68,199.42z"/>
			</g>
			<path class="st31" d="M276.44,194.43l-2.55-4.82c-0.38-2.98-1.51-6.45-4.47-8.42l0,0h0c-1.84-1.22-4.39-1.87-7.92-1.43
				c-0.14,0.02-0.27,0.04-0.41,0.06c-3.19-0.27-6.51-0.19-8.39,0.93c-2.93,1.75-3.6,6.76-3.72,9.94c-0.21,1.38-0.2,2.57-0.16,3.35
				c-0.33-0.03-0.67-0.14-1.04-0.38l-0.54,0.84c0.62,0.39,1.18,0.56,1.71,0.56c0.01,0,0.01,0,0.02,0c1.09,1.72,1.45,3.93,1.45,3.93
				c0.35-1.47,0.6-3.25,0.78-4.98c0.69-0.62,1.37-1.46,2.1-2.37c1.04-1.29,2.22-2.74,3.78-4.11c2.27-1.99,4.78-3.14,6.7-3.79
				c0.61-0.05,1.25-0.06,1.9-0.05c0.47,0.15,0.9,0.32,1.29,0.51c0.39,1.28,1.66,4.92,4.15,7.5c0.58,3.35,1.47,6.3,1.47,6.3
				c0.58-2.8,1.32-2.99,1.32-2.99s0.06-0.46,0.11-1.22C274.76,194.13,275.56,194.35,276.44,194.43z M256.42,186.79
				c-1.62,1.42-2.83,2.92-3.9,4.23c-0.44,0.54-0.82,1.01-1.18,1.41c0.07-0.88,0.12-1.7,0.16-2.44c1.7-1.88,4.29-4.07,7.83-5.31
				C258.37,185.26,257.38,185.95,256.42,186.79z"/>
		</g>
		<path class="st14" d="M197.87,231.36l1.72,25.89c0.02,0.34,0.24,0.64,0.56,0.76l15.06,5.91c0.59,0.23,1.23-0.22,1.2-0.85
			l-1.09-29.35c-0.02-0.42-0.33-0.77-0.75-0.84l-15.69-2.44C198.33,230.34,197.83,230.8,197.87,231.36z"/>
		<path class="st7" d="M196.87,231.8l1.72,25.89c0.02,0.34,0.24,0.64,0.56,0.76l15.06,5.91c0.59,0.23,1.23-0.22,1.2-0.85
			l-1.09-29.35c-0.02-0.42-0.33-0.77-0.75-0.84l-15.69-2.44C197.33,230.78,196.83,231.23,196.87,231.8z"/>
		<path class="st32" d="M280.05,220.3c-6.76,4.8-23.29,4.88-23.29,4.88l-2.37,2.54v-3.85c-6.56-3.39-11.46-9.62-13.66-12.81
			c1.99,0.27,4.33,1.13,6.62,2.19c1.89,0.88,3.75,1.89,5.35,2.84c2.86,1.67,4.92,3.11,4.92,3.11s3.95-0.56,8.7-0.72
			c2.46-0.08,5.14-0.05,7.59,0.22C276.31,218.96,278.5,219.45,280.05,220.3z"/>
		<path class="st33" d="M198.63,244.36c-0.3,0.19-1.08,1.26-1.08,1.26s2.14-0.47,2.5-0.47c1.18,0.01,1.75,0.2,1.7,0.93
			c-0.03,0.44-0.3,0.89-1.34,1.05c-0.92,0.14-2.29,0.75-2.29,0.75s1.24,0.05,1.69,0.09c0.55,0.06,0.98,0.25,1.14,0.63
			c0.1,0.24,0.09,0.98-0.65,1.11c-0.35,0.06-1.3-0.02-1.46,0.07c-0.31,0.15-1.42,0.67-1.76,0.13c-0.34-0.53,0.2-1.35,0.2-1.35
			s-0.71,0.41-1.04-0.38c-0.34-0.8,0.28-1.85,0.28-1.85s-0.98,0.07-0.94-0.91c0.04-0.97,0.78-1.83,0.78-1.83s-0.62,0.13-0.88-0.76
			c-0.15-0.56-0.09-1.42,0.36-1.87c0.86-0.87,1.79-1.31,2.7-1.46c0.86-0.14,1.65,0.11,2.44,0.3c0.41,0.1,0.09,1.54-1.59,1.78
			c-0.89,0.13-1.53,0.17-2.42,1.41l1.92-0.95c0,0,2.04-0.27,2.55,0.15c0.23,0.19,0.49,1.16-0.73,1.7
			C200.14,244.15,199.07,244.08,198.63,244.36z"/>
		<path class="st3" d="M240.73,211.06c0,0,1.01,15.7,13.29,18.6c12.28,2.9,24.44-10.17,26.03-10.3c1.59-0.13,5.03,4.79,5.8,7.87
			c0.77,3.08-16.4,40.41-20.14,44.79c0,0,2.65,8.21,7.54,10.54c4.89,2.33,0.72,7,0.72,7s2.67,1.38,0,2.86
			c-2.67,1.48-11.39,6.14-28.53,2.64s-19.66-8.17-20.31-9c-0.66-0.83,1.01-3.83,1.01-3.83s-1-2.67-0.33-5.5
			c0.67-2.83,6.83-11.04,6.83-11.04s0.83-12.17-0.67-20.15c-1.5-7.97,1.96-18.85,1.96-18.85l-1.54-10.52c0,0,1.75-4.36,5.09-5.31
			C237.47,210.85,240.73,208.89,240.73,211.06z"/>
		<path class="st1" d="M260.34,251.06c-1.34-0.34-5.48,5.48-2.58,8.38c2.9,2.89,9.08,1.75,9.08,1.75L260.34,251.06z"/>
		<g>
			<path class="st32" d="M252.22,243.18c0,0-6.29,0.5-6.96,0.25c-0.67-0.25-2.66-0.15-2.44,0.54c0.22,0.69,2.48,1.65,3.98,1.99
				c1.5,0.34,4.96,0,4.96,0L252.22,243.18z"/>
			<path class="st14" d="M233.89,249.56l18.8-10.05c0,0,0.98-0.07,0.98,1.05l-18.83,10.49l-2.88,0.51L233.89,249.56z"/>
			<path class="st33" d="M261.36,252.06l-1.15,7.38l-5.82-4.63c-0.12-0.01-0.25-0.02-0.37-0.03c-3.6-0.31-5.72-1.62-7.27-2.22
				c-0.36-0.14-0.62-0.34-0.81-0.56c-0.67-0.77-0.5-1.83-0.5-1.83s0.28-1.86,0-2.53s2.78-3.58,2.78-3.58l-2.25,0.76
				c-0.25,1.14-1.49,0.86-1.49,0.86s-0.51-2.74,0-2.89c0.51-0.15,6.37-2.48,7.61-0.9c1.26,1.59,4.24,7.29,4.24,7.29L261.36,252.06z"
				/>
			<path class="st32" d="M245.53,248.04c0,0,2.98-2.45,3.23-2.03c0.25,0.42-3.2,2.33-3.2,2.33L245.53,248.04z"/>
			<path class="st32" d="M245.44,250.16c0,0,3.01-1.53,3.33-1.23c0.32,0.29-3.33,1.45-3.33,1.45V250.16z"/>
			<path class="st32" d="M254.02,254.78c-3.6-0.31-5.72-1.62-7.27-2.22c-0.36-0.14-0.62-0.34-0.81-0.56
				c-0.01-0.01-0.01-0.02-0.01-0.02c0.54,0.25,3.21-0.42,3.21-0.42s0.37,1,0.75,1.33C250.24,253.21,252.2,254.54,254.02,254.78z"/>
		</g>
		<path class="st2" d="M285.84,227.22c2.12,2.77,4.04,34.47,3,43.33c-0.77,6.58-8.7,10.04-13.62,7.88c-6.53-2.88-17.2-17.5-17.46-19
			c0,0,4.67-2.25,2.58-8.38l15.13,6.17c0,0-2.41-7.36-2.71-9.59C271.5,238.27,285.84,227.22,285.84,227.22z"/>
		<path class="st33" d="M262.44,322.06c0,0,4.99,1.06,11.53-1.5C273.97,320.56,272.41,325.31,262.44,322.06z"/>
		<path class="st33" d="M262.44,327.56c0,0,8.16,1.63,14.03-1C276.47,326.56,270.78,330.68,262.44,327.56z"/>
		<path class="st33" d="M276.47,334.68c0,0-3.13,3.13-8.88,3C267.59,337.68,273.22,339.43,276.47,334.68z"/>
		<path class="st33" d="M228.59,319.93c0,0,1.59,4.67,10.75,3.88C239.34,323.81,233.64,323.76,228.59,319.93z"/>
		<path class="st33" d="M230.72,326.56c0,0,5.63,3.29,10.5,1.08C241.22,327.64,235.34,331.31,230.72,326.56z"/>
		<path class="st33" d="M233.97,334.06c0,0,1.88,0.63,4.63,0C238.59,334.06,237.97,336.81,233.97,334.06z"/>
		<path class="st33" d="M233.97,351.18c0,0,3.13,3.38,8.13,1.25C242.09,352.43,238.1,356.58,233.97,351.18z"/>
		<path class="st33" d="M235.76,351.64c0,0,2.67,1.5,6,0.46C241.76,352.1,237.76,351.47,235.76,351.64z"/>
		<path class="st33" d="M234.84,350.51c0,0,3.21-0.13,4.58,0.33C239.42,350.85,236.3,349.72,234.84,350.51z"/>
		<path class="st33" d="M234.59,354.22c0,0,3.13,1.63,5.58,0.5C240.17,354.72,237.22,356.72,234.59,354.22z"/>
		<path class="st33" d="M239.42,357.14c0,0-1.83,1.17-3.88,0.38C235.55,357.51,238.01,359.14,239.42,357.14z"/>
		<path class="st33" d="M278.04,348.62c0,0-3.14,3.37-8.13,1.22C269.91,349.84,273.89,354.01,278.04,348.62z"/>
		<path class="st33" d="M276.24,349.07c0,0-2.67,1.49-6,0.44C270.24,349.51,274.24,348.9,276.24,349.07z"/>
		<path class="st33" d="M277.16,347.95c0,0-3.21-0.14-4.58,0.32C272.58,348.27,275.71,347.15,277.16,347.95z"/>
		<path class="st33" d="M277.4,351.66c0,0-3.13,1.62-5.58,0.48C271.82,352.14,274.77,354.15,277.4,351.66z"/>
		<path class="st33" d="M272.56,354.56c0,0,1.83,1.17,3.87,0.39C276.43,354.95,273.97,356.57,272.56,354.56z"/>
		<path class="st31" d="M272.76,202.42c0,0,1.83,7.8-1.07,13.3c-2.89,5.5-6.4,9.32-4.15,15.83c2.25,6.51,0.59,8.71,0.59,8.71
			s3.96,0.02,3.56-6.84c-0.39-6.86,3.77-12.53,3.27-17.03S276.22,203.29,272.76,202.42z"/>
	</g>
</g>
</svg>
